<svg width="350" height="320" viewBox="0 0 350 320" fill="none" xmlns="http://www.w3.org/2000/svg">
<path d="M175 319.646C271.65 319.646 350 248.109 350 159.864C350 71.6188 271.65 0.0820312 175 0.0820312C78.3502 0.0820312 0 71.6188 0 159.864C0 248.109 78.3502 319.646 175 319.646Z" fill="#143D85"/>
<path fill-rule="evenodd" clip-rule="evenodd" d="M236.191 30.1781C239.804 29.5084 240.822 30.7878 243.219 31.0427C241.593 32.1222 238.566 31.9073 236.476 32.537C235.972 32.0372 235.912 31.2226 236.191 30.1781Z" fill="#00783A"/>
<path fill-rule="evenodd" clip-rule="evenodd" d="M205.705 43.3874C204.583 45.1565 204.096 47.4604 201.326 47.7302C199.805 46.4309 202.766 46.086 203.324 44.6917C201.419 45.7262 199.547 46.7957 196.493 46.7757C196.926 45.7462 196.11 45.6663 195.24 45.6413C194.999 44.0321 196.904 44.3769 197.145 43.1875C200.226 43.2924 202.202 45.0616 205.705 43.3874Z" fill="#00783A"/>
<path fill-rule="evenodd" clip-rule="evenodd" d="M243.253 46.4246C242.47 47.654 240.592 48.9484 239.383 47.7739C240.116 46.5345 241.999 45.2401 243.253 46.4246Z" fill="#00783A"/>
<path fill-rule="evenodd" clip-rule="evenodd" d="M254.85 57.7188C256.333 58.2935 258.298 58.5434 259.574 59.2731C258.167 60.6375 254.626 59.2931 254.85 57.7188Z" fill="#00783A"/>
<path fill-rule="evenodd" clip-rule="evenodd" d="M46.0418 67.7551C48.3516 67.7301 51.6795 66.9204 50.8092 69.3144C48.4665 69.3344 45.1551 70.1541 46.0418 67.7551Z" fill="#00783A"/>
<path fill-rule="evenodd" clip-rule="evenodd" d="M226.063 61.9785C226.38 64.3773 222.116 65.3118 223.069 62.7081C223.78 62.2134 224.815 61.9935 226.063 61.9785Z" fill="#00783A"/>
<path fill-rule="evenodd" clip-rule="evenodd" d="M231.154 61.7523C232.95 61.7223 232.451 63.8912 231.34 64.6908C229.49 64.7158 229.988 62.5469 231.154 61.7523Z" fill="#00783A"/>
<path fill-rule="evenodd" clip-rule="evenodd" d="M82.6487 79.6895C81.5431 81.7035 79.9886 83.3077 76.918 83.5026C77.0931 80.649 80.2842 80.539 82.6487 79.6895Z" fill="#00783A"/>
<path fill-rule="evenodd" clip-rule="evenodd" d="M221.57 86.4102C224.077 85.8954 224.055 87.2898 224.044 88.6642C221.532 89.1839 221.57 87.7846 221.57 86.4102Z" fill="#00783A"/>
<path fill-rule="evenodd" clip-rule="evenodd" d="M273.849 91.1291C277.243 91.0242 272.771 92.5385 272.727 93.553C280.149 92.3635 277.051 96.9114 279.684 98.5506C277.03 98.3607 276.531 97.9509 275.125 99.9349C273.548 99.9349 275.283 97.4261 275.059 96.3966C273.094 97.2762 268.945 98.6405 266.975 97.3462C267.478 93.6379 270.959 92.6534 273.849 91.1191" fill="#00783A"/>
<path fill-rule="evenodd" clip-rule="evenodd" d="M257.535 94.2471C258.531 93.0226 263.742 92.9527 262.39 95.2016C260.283 96.7259 258.942 94.7668 257.535 94.2471Z" fill="#00783A"/>
<path fill-rule="evenodd" clip-rule="evenodd" d="M229.215 99.6584C230.19 99.6534 231.159 99.5684 232.122 99.5234C232.27 101.797 228.208 101.977 229.215 99.6584Z" fill="#00783A"/>
<path fill-rule="evenodd" clip-rule="evenodd" d="M229.262 107.34C228.638 110.049 220.406 111.753 216.58 113.827C219.815 110.758 225.42 109.879 229.262 107.34Z" fill="#00783A"/>
<path fill-rule="evenodd" clip-rule="evenodd" d="M224.015 159.59C222.219 160.03 220.555 160.6 218.136 160.445C217.162 157.236 212.542 156.787 208.946 155.547C207.069 155.772 209.767 156.532 208.53 157.931C207.501 156.991 207.069 155.597 204.605 155.747C211.639 151.114 221.519 155.857 224.015 159.59Z" fill="#00783A"/>
<path fill-rule="evenodd" clip-rule="evenodd" d="M235.909 161.415C233.671 162.844 229.932 162.919 226.254 163.044C226.643 159.026 234.103 160.505 235.909 161.415Z" fill="#00783A"/>
<path fill-rule="evenodd" clip-rule="evenodd" d="M215.492 162.934C217.205 162.659 218.256 162.904 219.017 163.369C218.951 164.898 213.718 165.653 215.492 162.934Z" fill="#00783A"/>
<path fill-rule="evenodd" clip-rule="evenodd" d="M248.888 169.1L251.05 169C250.552 170.399 249.759 171.504 248.954 172.643C246.053 171.789 250.355 170.999 248.888 169.1Z" fill="#00783A"/>
<path fill-rule="evenodd" clip-rule="evenodd" d="M195.572 311.591C196.289 311.551 197.023 311.511 197.74 311.486C198.107 312.571 198.583 313.62 198.561 315.01C196.952 314.305 195.917 313.211 195.572 311.591Z" fill="#00783A"/>
<path fill-rule="evenodd" clip-rule="evenodd" d="M225.186 38.969C227.605 37.8496 224.529 33.1469 228.777 31.1179C230.244 31.0429 231.689 30.9779 233.117 30.918C232.926 31.9125 232.756 32.912 232.575 33.8965C232.964 35.4957 235.991 35.0859 238.043 35.4208C245.438 29.2938 247.507 40.0235 254.464 35.8605C254.032 37.0799 252.313 37.1199 251.88 38.3393C255.526 38.4943 258.596 39.084 260.841 40.2984C261.07 42.1125 258.662 41.5328 258.865 43.3419C261.738 45.7907 267.294 46.2404 270.928 48.1195C270.343 50.1535 267.737 50.2935 267.261 52.4224C263.512 52.5124 263.495 49.7987 260.66 49.184C259.582 49.8187 257.868 49.8687 257.458 51.1031C258.027 54.4314 262.428 54.8912 262.565 58.5544C262.258 60.3185 257.639 61.6579 261.092 62.7573C258.799 63.6119 256.44 60.0987 251.235 61.423C250.413 56.2256 241.032 57.1101 236.385 56.1906C237.616 54.0616 241.59 54.4514 244.71 54.0366C245.487 53.5818 244.754 51.268 246.806 50.3984C250.222 49.5238 250.348 52.6873 253.205 50.7033C254.01 48.5393 251.388 48.9791 249.209 49.0941C248.646 40.0535 233.686 40.2834 218.317 41.043C213.801 38.3793 215.881 30.893 224.414 31.3078C225.728 32.2123 225.558 34.2213 224.879 36.6052C223.664 32.6171 222.575 38.8191 225.17 38.969H225.186ZM259.538 59.2691C258.263 58.5394 256.292 58.2945 254.814 57.7148C254.59 59.294 258.131 60.6384 259.538 59.2691Z" fill="#00783A"/>
<path fill-rule="evenodd" clip-rule="evenodd" d="M124.72 50.0185C128.524 49.7487 134.036 46.965 137.928 44.6861C145.569 45.9005 154.682 46.5602 162.635 47.1249C163.177 49.009 160.216 47.6747 160.769 49.5687C164.972 51.4778 173.227 48.7192 174.349 53.6867C175.224 50.9731 177.397 49.4988 179.083 47.5597C177.452 47.1349 175.602 48.5442 178.257 48.1844C177.337 49.9536 175.985 47.9395 174.633 48.3493C182.395 44.4912 189.352 53.2569 198.536 47.2749C200.353 47.095 200.616 48.1045 201.952 48.2994C204.201 47.5797 204.957 45.4957 206.331 43.9615C206.648 42.1824 203.079 43.3418 202.324 42.3673C202.28 40.2483 203.687 39.4537 204.53 38.1393C211.651 37.2148 209.259 43.4667 211.706 46.0854C214.541 46.1104 214.404 43.4417 217.179 43.4667C218.865 44.6012 217.557 47.9745 219.018 49.2989C222.324 48.4043 224.18 46.1604 224.546 42.5422C227.71 42.2373 229.183 43.1619 230.737 44.0414C228.537 46.5652 230.868 47.3648 230.398 49.9685C227.825 51.113 225.472 52.4273 221.366 52.1525C219.286 56.5603 230.244 55.3159 229.987 60.0436C225.083 57.245 222.932 62.4375 218.29 61.1631C217.316 59.9437 220.682 58.1795 220.107 55.156C220.321 53.2869 215.006 54.0316 213.709 54.8712C213.835 56.2905 216.183 56.0656 217.715 56.4654C210.841 60.3685 201.968 63.5569 198.941 72.6824C200.178 74.8214 205.061 74.2167 203.643 78.3697C210.633 78.9144 213.058 82.9174 220.792 82.9174C218.673 88.9545 221.52 91.2534 225.466 92.7426C230.392 89.8291 229.615 81.708 233.851 78.1848C231.279 73.4071 233.485 68.2496 235.948 62.7223C243.556 59.9687 246.26 64.7013 251.252 65.5759C251.619 67.7648 249.156 67.355 249.134 69.2141C249.675 70.7184 250.447 72.0028 252.117 72.6275C256.435 72.4576 259.528 68.0397 262.21 68.6244C262.779 74.6965 265.281 79.3092 272.248 80.5836C271.871 82.7925 267.59 81.4532 267.333 83.767C268.822 85.5062 271.871 82.8525 274.597 83.4322C275.653 84.7915 275.85 86.7955 274.312 88.7696C264.613 92.4128 248.98 90.6037 244.421 98.9796C247.617 99.7792 250.732 94.5717 256.572 95.4763C256.572 97.3204 254.689 97.4553 252.615 97.4303C251.783 102.228 258.253 99.7192 258.061 103.093C261.088 103.083 261.52 100.684 264.262 100.454C261.323 104.002 255.724 105.132 251.509 107.535C251.865 104.847 254.848 104.552 256.616 103.158C251.942 103.093 239.736 105.806 241.421 111.528C237.251 113.947 231.542 115.012 230.485 120.294C229.298 119.814 229.703 118.16 228.044 118.04C228.865 126.531 220.436 130.984 213.884 136.416C214.015 140.779 215.247 144.292 215.247 148.76C210.731 149.995 211.53 143.083 210.359 140.119C207.141 139.44 203.747 138.93 198.969 139.455C197.327 140.629 198.367 141.639 198.312 143.023C192.034 141.369 184.595 141.329 179.888 145.642C176.385 155.237 175.197 167.631 189.538 163.518C190.791 162.578 191.207 160.864 191.755 159.285C193.895 158.456 195.75 157.386 198.607 157.206C200.096 160.644 195.126 163.593 195.192 167.986C196.079 170.075 202.193 168.196 204.289 169.35C203.358 174.513 201.317 180.5 205.608 181.704C209.976 181.169 214.59 179.93 215.466 183.033C218.854 178.586 221.388 177.586 226.293 174.862C227.809 175.837 222.729 179.19 226.024 180.2C228.383 179.07 228.778 176.227 230.628 174.673C233.654 177.191 238.767 178.121 245.921 177.516C247.596 187.047 265.954 183.993 266.583 194.313C264.832 196.667 261.909 197.951 260.398 200.5C262.648 202.079 266.386 196.077 268.806 197.761C268.472 200.23 264.481 199.35 263.814 201.529C266.89 203.613 269.758 199.58 272.199 198.786C278.313 202.914 290.962 202.099 295.013 207.796C293.967 214.503 288.954 217.572 284.646 221.28C282.785 229.301 280.639 237.072 275.16 241.795C267.142 242.364 262.839 246.293 257.913 249.666C257.048 257.817 248.055 270.821 237.36 267.742C235.307 269.641 239.889 270.931 239.15 273.564C237.075 276.753 231.717 276.943 227.535 278.222C225.45 280.256 224.552 283.374 219.527 282.72C219.182 284.534 219.637 285.733 221.06 286.193C217.557 287.852 217.168 292.39 213.233 293.654C212.346 296.513 212.975 298.292 215.98 298.252C210.337 302.82 207.223 309.717 200.945 313.705C202.116 310.251 198.881 310.121 195.898 309.797C198.531 308.022 195.652 301.231 200.934 301.895C201.798 298.827 196.615 297.637 196.85 296.753C197.195 294.134 198.925 296.498 199.724 296.618C202.275 293.914 203.484 287.243 201.902 284.709C208.142 271.18 214.42 254.723 218.433 237.267C208.186 231.635 204.99 220.69 201.957 209.65C201.957 207.786 204.185 207.976 204.661 206.567C201.005 198.476 220.896 189.595 211.295 182.044C205.416 186.117 202.165 180.53 197.852 180.87C198.706 172.189 186.171 173.603 181.322 169.21C172.406 168.975 160.539 167.231 160.993 158.311C155.547 152.673 153.407 144.522 147.2 139.425C145.191 146.087 151.436 150.984 153.467 156.287C145.383 152.159 145.711 144.747 142.564 137.271C132.804 131.908 127.249 120.814 134.178 104.557C136.193 104.982 136.537 105.207 137.884 103.792C136.587 99.6393 133.521 96.8306 127.856 95.9811C129.931 94.2219 128.311 91.3233 126.192 93.0925C124.184 92.8576 127.512 92.1229 127.249 91.2734C126.904 89.989 124.977 89.904 124.052 89.0544C128.869 81.763 116.548 83.1323 117.654 76.9304C108.458 75.8209 99.4323 74.5965 92.7765 71.553C89.0161 72.0727 89.1804 76.1607 85.3653 76.6205C83.4988 75.5161 86.4162 72.9873 87.593 72.3876C83.3784 70.4185 80.6143 75.721 79.2513 78.6745C73.5479 82.9524 66.4323 85.966 59.3879 89.0245C60.7891 86.1209 70.9918 85.2563 71.9004 79.5941C67.2533 78.0748 55.3156 78.6745 56.9631 70.8184C60.0337 68.0397 67.0782 68.9393 66.9687 63.272C61.6977 65.7708 54.9543 64.9162 54.5 60.8832C59.1142 57.9696 63.5313 61.9327 66.9906 59.1341C65.7153 55.8207 59.0157 56.6253 58.9062 52.4024C68.7859 48.6942 79.7659 40.7531 89.465 46.2903C100.056 45.2259 111.835 47.4998 120.462 49.6187C121.649 50.6132 119.706 53.9916 122.602 53.6617C124.851 52.1025 122.58 49.6137 122.969 47.7346C124.83 48.9091 128.004 46.6502 129.843 45.6507C132.804 46.2104 125.109 47.9945 124.698 50.0185H124.72ZM202.039 102.668C205.301 101.413 212.455 101.643 212.477 104.552C210.512 104.147 210.447 105.476 208.755 105.306C207.825 107.071 205.471 112.398 208.044 113.028C209.472 109.245 210.222 104.812 215.373 104.417C215.674 106.756 216.391 108.785 218.739 109.589C218.504 107.071 221.202 107.191 221.656 105.311C215.132 104.772 212.882 100.994 209.325 98.185C206.686 99.0446 201.842 101.508 202.039 102.668ZM232.089 99.5243L229.183 99.6593C228.175 101.978 232.237 101.798 232.089 99.5243ZM216.539 113.827C220.365 111.753 228.597 110.049 229.221 107.34C225.384 109.879 219.779 110.759 216.539 113.827Z" fill="#00783A"/>
<path fill-rule="evenodd" clip-rule="evenodd" d="M209.364 98.1855C212.921 100.994 215.171 104.767 221.696 105.312C221.241 107.191 218.543 107.071 218.778 109.59C216.425 108.785 215.708 106.756 215.412 104.418C210.267 104.812 209.511 109.24 208.083 113.028C205.51 112.404 207.864 107.071 208.794 105.307C210.486 105.477 210.546 104.148 212.516 104.553C212.495 101.639 205.335 101.409 202.078 102.668C201.876 101.509 206.72 99.0451 209.364 98.1855Z" fill="#00783A"/>
</svg>
