<svg width="35" height="33" viewBox="0 0 35 33" fill="none" xmlns="http://www.w3.org/2000/svg">
<g opacity="0.300003">
<g opacity="0.300003">
<path opacity="0.300003" d="M35 31.6064C35 32.1625 27.165 32.6133 17.5 32.6133C7.83502 32.6133 0 32.1625 0 31.6064C0 31.0503 7.83502 30.5995 17.5 30.5995C27.165 30.5995 35 31.0503 35 31.6064Z" fill="#000072"/>
</g>
</g>
<path d="M32.2299 30.3462C31.5354 31.0684 30.5166 31.4746 29.4527 31.4746H5.54576C4.48188 31.4746 3.46302 31.0684 2.76853 30.3462C2.38485 29.947 2.1012 29.5024 1.91043 29.0474C1.90971 29.0474 1.90971 29.0474 1.90971 29.0468C1.30954 27.6192 1.61534 26.0871 2.57276 25.536C4.18037 24.6095 5.42001 25.7417 5.42001 25.7417C5.55719 25.4527 5.74296 25.2022 5.95088 24.9876C6.73396 24.1764 7.83142 23.8675 7.83142 23.8675C7.23482 20.7989 8.56664 18.0187 8.56664 18.0187C8.56664 18.0187 11.8483 20.2427 17.4992 20.2427C23.1501 20.2427 26.4318 18.0187 26.4318 18.0187C26.4318 18.0187 27.7636 20.7989 27.167 23.8675C27.167 23.8675 28.924 24.3622 29.5784 25.7417C29.5784 25.7417 30.8181 24.6095 32.4257 25.536C33.6882 26.2633 33.8175 28.6963 32.2299 30.3462Z" fill="#B11313"/>
<g opacity="0.300003">
<g opacity="0.300003">
<path opacity="0.300003" d="M6.37696 28.5703C6.59845 26.6474 5.42383 25.8176 5.42383 25.8176C5.56101 25.5286 5.74678 25.2781 5.9547 25.0634C7.77665 27.0177 6.37696 28.5703 6.37696 28.5703Z" fill="#000072"/>
</g>
</g>
<g opacity="0.300003">
<g opacity="0.300003">
<path opacity="0.300003" d="M28.6347 28.5703C28.4132 26.6474 29.5878 25.8176 29.5878 25.8176C29.4506 25.5286 29.2649 25.2781 29.057 25.0634C27.235 27.0177 28.6347 28.5703 28.6347 28.5703Z" fill="#000072"/>
</g>
</g>
<g opacity="0.300003">
<g opacity="0.300003">
<path opacity="0.300003" d="M28.8213 30.1848C28.651 30.1468 28.4755 30.1337 28.3012 30.1509C28.0527 30.1753 27.6252 30.2133 26.9982 30.2554C26.0545 30.3189 25.2303 29.6829 25.1659 28.8362C25.1382 28.4724 25.1989 28.19 25.2209 28.1026C24.9745 29.0474 24.5194 29.9178 24.242 30.3951C22.8335 30.4478 21.0495 30.4906 18.8434 30.5032C18.7244 26.6804 21.2007 23.096 21.2007 23.096C17.4065 25.8179 13.8108 23.096 13.8108 23.096C16.3144 27.0811 16.1841 30.3372 16.1841 30.3372L16.6057 30.5053C14.1966 30.4962 12.2699 30.4512 10.7695 30.3952C10.492 29.9178 10.037 29.0474 9.79052 28.1026C9.81339 28.1935 9.87813 28.4954 9.84174 28.8804C9.76344 29.709 8.93854 30.3177 8.0139 30.2555C7.3865 30.2133 6.95884 30.1754 6.71028 30.1509C6.53589 30.1337 6.36039 30.1468 6.19016 30.1848C3.46996 30.7921 1.96259 29.177 1.91406 29.1236C2.10483 29.5785 2.38848 30.0232 2.77217 30.4224C3.46665 31.1445 4.48552 31.5508 5.5494 31.5508H17.5057H29.462C30.5259 31.5508 31.5448 31.1445 32.2393 30.4224C32.6229 30.0232 32.9066 29.5785 33.0974 29.1236C33.0488 29.177 31.5415 30.7921 28.8213 30.1848Z" fill="#000072"/>
</g>
</g>
<g opacity="0.300003">
<g opacity="0.300003">
<path opacity="0.300003" d="M9.78496 28.1016C9.78032 28.0829 9.77734 28.0727 9.77734 28.0727C9.77979 28.0824 9.78247 28.0919 9.78496 28.1016Z" fill="#000072"/>
</g>
</g>
<g opacity="0.300003">
<g opacity="0.300003">
<path opacity="0.300003" d="M25.2207 28.1016C25.2232 28.0919 25.2259 28.0824 25.2283 28.0727C25.2283 28.0727 25.2254 28.0829 25.2207 28.1016Z" fill="#000072"/>
</g>
</g>
<path d="M17.4962 31.3272H29.4526C30.4556 31.3272 31.3995 30.9441 32.0424 30.276C32.873 29.4128 33.2825 28.2176 33.1113 27.1566C33.011 26.5355 32.7124 26.0401 32.2919 25.7977C30.8701 24.978 29.7997 25.9316 29.7548 25.9725C29.6969 26.0254 29.6134 26.0491 29.532 26.0351C29.4508 26.0213 29.3825 25.972 29.3502 25.9038C28.7473 24.6329 27.109 24.1592 27.0925 24.1546C26.974 24.1212 26.9013 24.0142 26.9227 23.9045C27.3971 21.4659 26.6134 19.1843 26.3133 18.4367C25.4148 18.9635 22.3231 20.5399 17.4991 20.5399C12.6751 20.5399 9.58332 18.9635 8.68486 18.4367C8.38476 19.1843 7.60102 21.4659 8.07548 23.9045C8.09683 24.0142 8.0242 24.1212 7.90562 24.1546C7.88943 24.1592 6.24844 24.6379 5.64799 25.9038C5.61561 25.972 5.54738 26.0213 5.46613 26.0351C5.3849 26.049 5.30125 26.0254 5.24333 25.9725C5.19861 25.9322 4.11895 24.9832 2.70625 25.7977C2.28579 26.0401 1.98712 26.5355 1.88689 27.1566C1.71567 28.2176 2.1252 29.4129 2.95573 30.276C3.59864 30.9441 4.54259 31.3272 5.54556 31.3272H17.4962ZM29.4526 31.7715H5.54556C4.39843 31.7715 3.31776 31.3322 2.58069 30.5662C1.65915 29.6085 1.20543 28.2776 1.39662 27.093C1.51918 26.3334 1.88916 25.7406 2.43839 25.424C3.74551 24.6705 4.8484 25.1626 5.33306 25.4691C5.94781 24.4597 7.08841 23.9646 7.55392 23.7974C7.03552 20.7744 8.28436 18.1194 8.33884 18.0057C8.36888 17.9429 8.42941 17.8961 8.50299 17.8787C8.57667 17.8612 8.65507 17.875 8.71577 17.9162C8.74786 17.9378 12.0067 20.0956 17.4991 20.0956C22.9915 20.0956 26.2503 17.9378 26.2826 17.916C26.3434 17.875 26.4219 17.8612 26.4953 17.8787C26.5688 17.8963 26.6293 17.943 26.6593 18.0057C26.7138 18.1194 27.9626 20.7744 27.4442 23.7974C27.9098 23.9646 29.0504 24.4597 29.6651 25.4691C30.1497 25.1626 31.2525 24.6703 32.5598 25.424C33.109 25.7406 33.479 26.3333 33.6016 27.093C33.7928 28.2776 33.339 29.6085 32.4175 30.5662C31.6804 31.3322 30.5997 31.7715 29.4526 31.7715Z" fill="#000072"/>
<path d="M5.55991 25.6363C5.58709 25.6529 5.59975 25.6621 5.61847 25.6745C5.63623 25.6863 5.65055 25.6975 5.66676 25.7092C5.69894 25.7325 5.72613 25.7571 5.75528 25.7813C5.78512 25.8051 5.8097 25.8314 5.83649 25.8568C5.86347 25.8821 5.88879 25.9082 5.91254 25.9351C6.01123 26.0412 6.09421 26.1555 6.1682 26.2736C6.3165 26.5097 6.41503 26.7643 6.48352 27.0206C6.5503 27.2781 6.57497 27.5394 6.57501 27.7975C6.57552 27.9264 6.55947 28.055 6.54969 28.1821C6.52834 28.3091 6.50502 28.435 6.47538 28.5591C6.46972 28.5828 6.44373 28.5978 6.41732 28.5928C6.39726 28.5889 6.38274 28.5745 6.37938 28.5575L6.37881 28.5544C6.35454 28.4297 6.33942 28.3068 6.32118 28.185L6.28568 28.0037C6.27269 27.9438 6.26785 27.8832 6.25007 27.8244C6.21679 27.7067 6.19895 27.5877 6.15697 27.474C6.13868 27.4167 6.12433 27.3587 6.10441 27.3024L6.04054 27.1352C5.95242 26.9146 5.84478 26.7036 5.71508 26.5086C5.68132 26.4608 5.64971 26.4114 5.61301 26.3661L5.55997 26.2966L5.50308 26.2306C5.46701 26.1851 5.42517 26.1451 5.38602 26.104C5.36582 26.0845 5.34579 26.0633 5.32541 26.046C5.31562 26.0371 5.30516 26.0265 5.29593 26.0188C5.28769 26.0116 5.27418 26.0003 5.27327 25.9986L5.21981 25.9023C5.16241 25.7989 5.20932 25.6734 5.32463 25.6219C5.40274 25.587 5.49248 25.5953 5.55991 25.6363Z" fill="#000072"/>
<path d="M29.7139 25.9986C29.7129 26.0003 29.6994 26.0116 29.6912 26.0188C29.682 26.0265 29.6715 26.0371 29.6617 26.046C29.6413 26.0634 29.6213 26.0845 29.6011 26.104C29.5619 26.1451 29.5201 26.1851 29.484 26.2306L29.4272 26.2966L29.3741 26.3661C29.3374 26.4114 29.3058 26.4608 29.272 26.5086C29.1423 26.7037 29.0347 26.9146 28.9466 27.1352L28.8827 27.3024C28.8628 27.3587 28.8485 27.4167 28.8302 27.474C28.7882 27.5877 28.7703 27.7067 28.7371 27.8244C28.7193 27.8833 28.7144 27.9438 28.7015 28.0037L28.666 28.185C28.6477 28.3068 28.6326 28.4297 28.6083 28.5544L28.6077 28.5574C28.6031 28.5813 28.5778 28.5973 28.5512 28.5931C28.5309 28.5899 28.5158 28.576 28.5117 28.5591C28.4821 28.435 28.4588 28.3091 28.4374 28.1821C28.4277 28.055 28.4116 27.9265 28.4121 27.7975C28.4122 27.5394 28.4368 27.2781 28.5036 27.0207C28.5721 26.7643 28.6706 26.5097 28.8189 26.2736C28.8929 26.1555 28.9759 26.0412 29.0746 25.9351C29.0983 25.9082 29.1237 25.8821 29.1506 25.8568C29.1774 25.8314 29.202 25.8051 29.2318 25.7813C29.261 25.7571 29.2882 25.7325 29.3204 25.7092C29.3366 25.6975 29.3509 25.6863 29.3686 25.6745C29.3874 25.6621 29.4 25.6529 29.4272 25.6363C29.5337 25.5712 29.6787 25.5959 29.7513 25.6914C29.8004 25.756 29.8036 25.8366 29.7675 25.9021L29.7139 25.9986Z" fill="#000072"/>
<path d="M8.07896 23.9171L8.09914 24.0946L8.12436 24.2932C8.13323 24.3608 8.14505 24.4287 8.15157 24.4999C8.15884 24.5709 8.16314 24.6446 8.15913 24.7241L8.15911 24.7245C8.15848 24.737 8.14668 24.7466 8.13272 24.7461C8.12772 24.7459 8.12313 24.7444 8.11933 24.7419C8.04655 24.696 7.98394 24.6433 7.92975 24.5858C7.87425 24.5288 7.82883 24.4665 7.78454 24.4027C7.74124 24.3385 7.70181 24.2717 7.6675 24.2018C7.65136 24.1665 7.63462 24.131 7.62163 24.0936C7.61462 24.0751 7.60829 24.056 7.60263 24.0364C7.5965 24.0153 7.5924 23.9998 7.58709 23.9699C7.5656 23.8487 7.65777 23.7347 7.79295 23.7155C7.92815 23.6962 8.05516 23.7789 8.07662 23.9001C8.07732 23.904 8.07788 23.9079 8.07835 23.9117L8.07896 23.9171Z" fill="#000072"/>
<path d="M27.4173 23.9699C27.412 23.9998 27.4079 24.0153 27.4018 24.0364C27.3961 24.056 27.3898 24.0751 27.3828 24.0936C27.3698 24.131 27.3531 24.1665 27.3369 24.2018C27.3026 24.2717 27.2632 24.3385 27.2199 24.4027C27.1756 24.4665 27.1302 24.5288 27.0747 24.5858C27.0205 24.6433 26.9579 24.696 26.8851 24.7419C26.8737 24.7492 26.8579 24.7467 26.8499 24.7365C26.847 24.7328 26.8455 24.7286 26.8453 24.7244L26.8453 24.7241C26.8413 24.6446 26.8456 24.571 26.8529 24.4999C26.8594 24.4287 26.8712 24.3608 26.8801 24.2932L26.9053 24.0946L26.9255 23.9171L26.926 23.9125C26.9399 23.7903 27.0615 23.7014 27.1977 23.7139C27.3339 23.7263 27.433 23.8354 27.4191 23.9575C27.4187 23.9615 27.418 23.9661 27.4173 23.9699Z" fill="#000072"/>
<path d="M9.27749 26.1194C9.27749 26.1194 8.1436 25.3308 7.82974 23.944C7.82974 23.944 7.17741 23.6484 6.72656 24.4484C6.72656 24.4484 7.24664 26.8907 9.77736 28.0742C9.77736 28.0742 9.41167 26.8169 9.27749 26.1194Z" fill="#0096F2"/>
<path d="M6.98826 24.4807C7.0904 24.8537 7.6404 26.5566 9.39091 27.6111C9.28015 27.208 9.13333 26.651 9.04915 26.2387C8.78656 26.0347 7.93193 25.2964 7.61794 24.1159C7.47535 24.0939 7.21865 24.1196 6.98826 24.4807ZM9.77698 28.2969C9.73787 28.2969 9.69858 28.2886 9.66247 28.2717C7.05549 27.0525 6.50507 24.5946 6.48291 24.4906C6.47265 24.4424 6.48047 24.3925 6.50517 24.3487C6.78678 23.849 7.15502 23.7074 7.41434 23.6766C7.70128 23.6422 7.91741 23.7356 7.9411 23.7463C8.00878 23.777 8.05707 23.8338 8.07214 23.9004C8.36278 25.1846 9.41867 25.9372 9.42929 25.9446C9.47775 25.9786 9.51079 26.0278 9.52122 26.0822C9.65208 26.7624 10.0131 28.0062 10.0167 28.0187C10.0414 28.1036 10.0079 28.1938 9.93132 28.2485C9.88655 28.2805 9.83195 28.2969 9.77698 28.2969Z" fill="#000072"/>
<path d="M25.7264 26.1194C25.7264 26.1194 26.8603 25.3308 27.1742 23.944C27.1742 23.944 27.8265 23.6484 28.2774 24.4484C28.2774 24.4484 27.7573 26.8907 25.2266 28.0742C25.2266 28.0742 25.5923 26.8169 25.7264 26.1194Z" fill="#0096F2"/>
<path d="M25.9521 26.2387C25.8679 26.6511 25.7211 27.208 25.6103 27.6111C27.3608 26.5567 27.9108 24.8539 28.013 24.4807C27.8735 24.2614 27.7085 24.1391 27.5218 24.117C27.4695 24.1107 27.4215 24.1133 27.3825 24.1189C27.0679 25.2977 26.2145 26.0348 25.9521 26.2387ZM25.2243 28.2969C25.1693 28.2969 25.1147 28.2805 25.07 28.2485C24.9933 28.1938 24.9599 28.1036 24.9846 28.0187C24.9882 28.0062 25.3492 26.7624 25.48 26.0822C25.4905 26.0276 25.5233 25.9786 25.572 25.9446C25.5826 25.9372 26.6385 25.1846 26.9291 23.9004C26.9442 23.8338 26.9925 23.777 27.0602 23.7464C27.0838 23.7356 27.2999 23.6422 27.5869 23.6766C27.8462 23.7074 28.2145 23.849 28.4961 24.3487C28.5208 24.3926 28.5286 24.4424 28.5184 24.4906C28.4962 24.5946 27.9458 27.0525 25.3388 28.2717C25.3027 28.2885 25.2634 28.2969 25.2243 28.2969Z" fill="#000072"/>
<path d="M12.6953 20.4453C12.6953 20.4453 13.121 21.5276 12.9985 23.1066L14.4013 24.2012C14.4013 24.2012 14.7678 22.2935 14.1435 20.7091L12.6953 20.4453Z" fill="#0096F2"/>
<path d="M13.2491 23.0096L14.2083 23.7581C14.2732 23.1493 14.3286 21.9558 13.95 20.8999L13.039 20.7339C13.1568 21.1733 13.3139 21.9815 13.2491 23.0096ZM14.3969 24.4219C14.3381 24.4219 14.2801 24.403 14.2343 24.3673L12.8316 23.2728C12.773 23.227 12.7417 23.1593 12.7471 23.0898C12.8642 21.5809 12.4614 20.528 12.4573 20.5176C12.4278 20.4422 12.4458 20.3582 12.5044 20.298C12.563 20.2379 12.6532 20.2107 12.7403 20.2262L14.1884 20.49C14.2737 20.5055 14.3437 20.5601 14.3726 20.6336C15.0112 22.2541 14.6564 24.1573 14.641 24.2375C14.6258 24.3165 14.5643 24.3821 14.48 24.409C14.4529 24.4176 14.4248 24.4219 14.3969 24.4219Z" fill="#000072"/>
<path d="M22.307 20.4453C22.307 20.4453 21.8813 21.5276 22.0038 23.1066L20.6011 24.2012C20.6011 24.2012 20.2345 22.2935 20.8588 20.7091L22.307 20.4453Z" fill="#0096F2"/>
<path d="M21.0492 20.8999C20.6699 21.9577 20.7254 23.1502 20.7906 23.7583L21.7501 23.0096C21.6853 21.9815 21.8424 21.1733 21.9601 20.7339L21.0492 20.8999ZM20.6023 24.4219C20.5744 24.4219 20.5463 24.4176 20.5192 24.409C20.4349 24.3821 20.3734 24.3165 20.3582 24.2375C20.3428 24.1573 19.988 22.2541 20.6265 20.6336C20.6555 20.5601 20.7255 20.5055 20.8108 20.49L22.2589 20.2262C22.3463 20.2101 22.4366 20.2378 22.4951 20.2981C22.5536 20.3584 22.5714 20.4423 22.5419 20.5177C22.5354 20.5343 22.1354 21.5855 22.2521 23.0898C22.2575 23.1593 22.2262 23.227 22.1676 23.2728L20.7649 24.3673C20.7191 24.403 20.6611 24.4219 20.6023 24.4219Z" fill="#000072"/>
<path d="M16.1011 30.8559C15.7481 32.4104 13.7361 33.1216 12.3221 32.1688C11.2154 31.4236 10 29.7192 9.24908 25.9816C9.17763 25.6234 9.10975 25.246 9.04688 24.8494L9.52487 24.4431L12.6936 21.7481C12.6936 21.7481 15.8153 26.0822 16.1611 29.4045V29.4052C16.2154 29.9197 16.2025 30.4099 16.1011 30.8559Z" fill="#B11313"/>
<g opacity="0.300003">
<g opacity="0.300003">
<path opacity="0.300003" d="M16.1002 30.8559C15.7472 32.4104 13.7352 33.1216 12.3212 32.1688C11.2145 31.4236 9.99912 29.7192 9.24819 25.9816C8.19145 25.4107 7.82849 23.9427 7.82849 23.9427C7.37264 21.9935 7.89851 20.1968 7.89851 20.1968C7.79844 22.5694 8.84849 23.7011 9.28158 24.0644C9.40226 24.1657 9.4866 24.2962 9.52335 24.4407C9.52357 24.4415 9.52377 24.4423 9.52398 24.4431C10.2978 27.5137 11.5939 31.2544 13.4744 31.5223C15.2899 31.7805 16.0723 29.6596 16.1602 29.4052C16.2145 29.9197 16.2016 30.4099 16.1002 30.8559Z" fill="#000072"/>
</g>
</g>
<path d="M12.9664 21.5415C13.3272 21.8939 13.6125 22.287 13.8712 22.6931C13.9996 22.8966 14.1167 23.1055 14.233 23.3146C14.3494 23.5237 14.4633 23.734 14.5744 23.9456C15.0191 24.7915 15.424 25.6566 15.7603 26.5479C16.097 27.4382 16.3681 28.3581 16.4669 29.3158C16.5145 29.7939 16.5174 30.2831 16.4268 30.7729C16.4072 30.8931 16.3785 31.0222 16.3344 31.1464C16.2944 31.2715 16.2377 31.3923 16.1762 31.5106C16.048 31.7454 15.8771 31.9618 15.6733 32.1491C15.2616 32.5198 14.7175 32.7699 14.1399 32.8433C13.8518 32.8837 13.5559 32.8749 13.2688 32.8293C12.9819 32.7804 12.7049 32.688 12.4516 32.5608C12.3277 32.4951 12.203 32.4229 12.0953 32.3433L11.9339 32.2245C11.8793 32.1854 11.8325 32.1401 11.7816 32.0982C11.7324 32.0549 11.6801 32.0138 11.6337 31.9685L11.4956 31.8321C11.4002 31.7431 11.3212 31.6443 11.2356 31.5494C10.9049 31.1627 10.6412 30.7422 10.4097 30.3134C10.1744 29.885 9.99451 29.4395 9.82028 28.9942C9.6586 28.5455 9.51133 28.0937 9.39018 27.6373C9.3303 27.4091 9.266 27.1816 9.21714 26.9516C9.16681 26.722 9.10653 26.4938 9.06994 26.2622C8.98892 25.8001 8.9509 25.3317 8.99547 24.8566C8.99798 24.8297 9.0243 24.8098 9.05425 24.812C9.07513 24.8136 9.09225 24.8256 9.09987 24.8418L9.10051 24.8432C9.2035 25.064 9.28141 25.2868 9.34858 25.5107C9.41474 25.7349 9.48329 25.9576 9.53525 26.183C9.58494 26.409 9.64317 26.6327 9.69798 26.8572C9.75004 27.0825 9.81712 27.3038 9.87969 27.5263C10.0063 27.9709 10.1577 28.408 10.3219 28.8399C10.498 29.2668 10.6789 29.6932 10.9089 30.0944C11.1342 30.4972 11.3912 30.8837 11.6932 31.2318C11.7712 31.3165 11.8436 31.4065 11.9289 31.484L12.0525 31.6044C12.0938 31.6444 12.1398 31.6791 12.1831 31.7169C12.2278 31.7529 12.2692 31.7931 12.3164 31.8259L12.4558 31.9268C12.5483 31.9943 12.6427 32.0466 12.7413 32.0988C12.9404 32.1965 13.1549 32.2661 13.3766 32.3025C13.5986 32.3355 13.827 32.3417 14.0501 32.3082C14.4978 32.2489 14.919 32.0492 15.2354 31.7618C15.393 31.6173 15.5253 31.4509 15.6253 31.2694C15.6727 31.1775 15.7179 31.0842 15.749 30.9861C15.7839 30.8893 15.8063 30.7903 15.8243 30.6811C15.9046 30.2551 15.9054 29.8089 15.8621 29.364C15.8182 28.9184 15.73 28.4724 15.6158 28.0303C15.5023 27.5878 15.3604 27.149 15.2025 26.7143C14.886 25.8445 14.4992 24.9916 14.0716 24.1553C13.9648 23.946 13.8551 23.738 13.7431 23.5309C13.6315 23.3235 13.5141 23.1188 13.4053 22.91C13.1856 22.4935 12.9787 22.0701 12.8154 21.6225L12.8149 21.621C12.7995 21.5787 12.8252 21.5332 12.8723 21.5194C12.9069 21.5093 12.9433 21.519 12.9664 21.5415Z" fill="#000072"/>
<path d="M9.94307 28.793C9.87637 28.793 9.80983 28.769 9.76103 28.7216C9.66829 28.6315 9.67444 28.4911 9.77481 28.4079C9.86671 28.3317 12.0637 26.5393 15.4275 26.3138C15.5635 26.3039 15.6827 26.3964 15.6929 26.5187C15.7031 26.641 15.6008 26.7477 15.4644 26.7568C12.2791 26.9704 10.1323 28.7166 10.111 28.7341C10.0634 28.7735 10.0031 28.793 9.94307 28.793Z" fill="#000072"/>
<path d="M18.9002 30.8578C19.2532 32.4123 21.2652 33.1236 22.6792 32.1707C23.786 31.4255 25.0013 29.7211 25.7522 25.9836C25.8237 25.6254 25.8916 25.248 25.9544 24.8513L25.4764 24.4451L22.3077 21.75C22.3077 21.75 19.186 26.0842 18.8402 29.4065V29.4071C18.7859 29.9217 18.7988 30.4119 18.9002 30.8578Z" fill="#B11313"/>
<g opacity="0.300003">
<g opacity="0.300003">
<path opacity="0.300003" d="M18.8924 30.8559C19.2454 32.4104 21.2574 33.1216 22.6714 32.1688C23.7781 31.4236 24.9935 29.7192 25.7444 25.9816C26.8012 25.4107 27.1641 23.9427 27.1641 23.9427C27.62 21.9935 27.0941 20.1968 27.0941 20.1968C27.1942 22.5694 26.1441 23.7011 25.711 24.0644C25.5904 24.1657 25.506 24.2962 25.4693 24.4407C25.469 24.4415 25.4688 24.4423 25.4686 24.4431C24.6948 27.5137 23.3987 31.2544 21.5182 31.5223C19.7027 31.7805 18.9203 29.6596 18.8324 29.4052C18.7781 29.9197 18.791 30.4099 18.8924 30.8559Z" fill="#000072"/>
</g>
</g>
<path d="M22.1861 21.6225C22.0229 22.0701 21.8159 22.4935 21.5962 22.91C21.4875 23.1188 21.37 23.3235 21.2585 23.5309C21.1464 23.7379 21.0367 23.946 20.93 24.1553C20.5024 24.9916 20.1156 25.8445 19.7991 26.7143C19.6411 27.149 19.4993 27.5878 19.3858 28.0303C19.2716 28.4724 19.1834 28.9184 19.1395 29.364C19.0962 29.8089 19.097 30.2551 19.1773 30.6811C19.1953 30.7903 19.2176 30.8893 19.2526 30.9862C19.2837 31.0842 19.3289 31.1775 19.3762 31.2694C19.4763 31.4509 19.6086 31.6173 19.7662 31.7618C20.0826 32.0492 20.5038 32.2489 20.9515 32.3082C21.1746 32.3417 21.403 32.3355 21.625 32.3025C21.8467 32.2661 22.0612 32.1965 22.2603 32.0988C22.3589 32.0466 22.4533 31.9943 22.5457 31.9268L22.6852 31.8259C22.7324 31.7931 22.7738 31.7529 22.8185 31.7169C22.8618 31.6791 22.9078 31.6444 22.9491 31.6044L23.0727 31.484C23.158 31.4065 23.2303 31.3165 23.3084 31.2318C23.6104 30.8837 23.8674 30.4972 24.0927 30.0944C24.3227 29.6932 24.5036 29.2668 24.6797 28.8398C24.8439 28.408 24.9953 27.9708 25.1219 27.5263C25.1845 27.3038 25.2515 27.0825 25.3036 26.8572C25.3584 26.6327 25.4166 26.409 25.4663 26.183C25.5183 25.9576 25.5868 25.7349 25.653 25.5107C25.7202 25.2868 25.7981 25.064 25.9011 24.8432L25.9017 24.8418C25.9133 24.817 25.9452 24.8052 25.9729 24.8156C25.9922 24.8229 26.0044 24.8391 26.0061 24.8566C26.0507 25.3317 26.0127 25.8001 25.9316 26.2622C25.895 26.4938 25.8347 26.722 25.7844 26.9516C25.7356 27.1816 25.6713 27.4091 25.6114 27.6373C25.4903 28.0937 25.343 28.5455 25.1813 28.9942C25.0071 29.4395 24.8272 29.885 24.5919 30.3134C24.3604 30.7422 24.0966 31.1627 23.766 31.5494C23.6804 31.6443 23.6013 31.7431 23.506 31.8321L23.3678 31.9685C23.3215 32.0138 23.2692 32.0549 23.22 32.0982C23.169 32.1401 23.1222 32.1854 23.0677 32.2245L22.9063 32.3433C22.7986 32.4229 22.6739 32.4951 22.5499 32.5608C22.2967 32.688 22.0196 32.7804 21.7327 32.8293C21.4456 32.8749 21.1498 32.8837 20.8617 32.8433C20.2841 32.7699 19.74 32.5198 19.3282 32.1491C19.1245 31.9618 18.9536 31.7454 18.8253 31.5106C18.7639 31.3923 18.7071 31.2715 18.6671 31.1464C18.623 31.0222 18.5944 30.8931 18.5748 30.7729C18.4842 30.2831 18.4871 29.7939 18.5346 29.3158C18.6335 28.3581 18.9046 27.4382 19.2412 26.5479C19.5776 25.6566 19.9825 24.7915 20.4272 23.9456C20.5382 23.734 20.6522 23.5237 20.7685 23.3146C20.8849 23.1054 21.002 22.8966 21.1304 22.6931C21.3891 22.287 21.6743 21.894 22.0351 21.5415C22.0687 21.5087 22.1255 21.5065 22.162 21.5366C22.1888 21.5587 22.1973 21.5919 22.1867 21.621L22.1861 21.6225Z" fill="#000072"/>
<path d="M25.0592 28.793C24.9991 28.793 24.9388 28.7735 24.8912 28.734C24.8699 28.7164 22.7231 26.9702 19.5378 26.7567C19.4014 26.7475 19.2991 26.6409 19.3093 26.5186C19.3195 26.3962 19.4385 26.3039 19.5747 26.3136C22.9385 26.5392 25.1355 28.3315 25.2274 28.4078C25.3278 28.491 25.334 28.6316 25.2411 28.7216C25.1923 28.769 25.1258 28.793 25.0592 28.793Z" fill="#000072"/>
<path d="M17.5041 19.6026C23.982 19.6026 26.5541 17.0648 26.5541 17.0648C26.5541 17.0648 26.662 17.2833 26.7145 17.5939C26.8015 18.1081 26.558 18.624 26.0943 18.9364C25.075 19.6231 22.4796 20.9316 17.5007 20.9316C12.5219 20.9316 9.92644 19.6231 8.90717 18.9364C8.44348 18.624 8.19998 18.1081 8.28696 17.5939C8.33951 17.2833 8.44742 17.0648 8.44742 17.0648C8.44742 17.0648 11.0195 19.6026 17.4974 19.6026" fill="#751313"/>
<g opacity="0.300003">
<g opacity="0.300003">
<path opacity="0.300003" d="M26.6928 17.4749C26.6094 17.7974 26.4008 18.0905 26.0962 18.2956C25.077 18.9824 22.4816 20.2909 17.5027 20.2909C12.5238 20.2909 9.92838 18.9824 8.90911 18.2956C8.60463 18.0905 8.39594 17.7974 8.31258 17.4749C8.30398 17.5128 8.29594 17.5524 8.28892 17.5939C8.20192 18.1082 8.44542 18.624 8.90911 18.9364C9.92838 19.6231 12.5238 20.9316 17.5027 20.9316C22.4816 20.9316 25.077 19.6231 26.0962 18.9364C26.5599 18.624 26.8034 18.1082 26.7165 17.5939C26.7094 17.5524 26.7014 17.5128 26.6928 17.4749Z" fill="#000072"/>
</g>
</g>
<path d="M17.5005 21.1543C12.5283 21.1543 9.88896 19.8763 8.75822 19.1145C8.21607 18.7492 7.94158 18.154 8.04188 17.5612C8.09871 17.2249 8.21576 16.9854 8.22072 16.9754C8.25466 16.9067 8.32496 16.858 8.40764 16.8461C8.49018 16.8339 8.57412 16.8603 8.63049 16.9159C8.65534 16.9402 11.2231 19.381 17.4972 19.381V19.8253C12.1385 19.8253 9.42028 18.1301 8.56505 17.4699C8.5527 17.5186 8.54115 17.5715 8.53162 17.6277C8.45874 18.0587 8.65956 18.4924 9.05577 18.7593C10.1371 19.4878 12.6722 20.71 17.5005 20.71C22.3289 20.71 24.864 19.4878 25.9454 18.7593C26.3415 18.4924 26.5423 18.0588 26.4694 17.6277C26.4599 17.5715 26.4484 17.5186 26.436 17.4699C25.5808 18.1301 22.8625 19.8253 17.5039 19.8253V19.381C23.7993 19.381 26.3456 16.9405 26.3706 16.9159C26.4269 16.8603 26.5108 16.834 26.5934 16.8461C26.6761 16.858 26.7464 16.9067 26.7803 16.9754C26.7853 16.9854 26.9024 17.2249 26.9592 17.5612C27.0595 18.154 26.785 18.7493 26.2429 19.1145C25.1122 19.8763 22.4728 21.1543 17.5005 21.1543Z" fill="#000072"/>
<path d="M8.45703 18.9438L12.4511 27.0977" stroke="#000072" stroke-width="0.2" stroke-miterlimit="10"/>
<path d="M22.3848 27.0977L26.4636 18.9438" stroke="#000072" stroke-width="0.2" stroke-miterlimit="10"/>
<path fill-rule="evenodd" clip-rule="evenodd" d="M17.2077 22.2727C17.2061 22.2923 17.1928 22.3099 17.1839 22.3292C17.1754 22.3479 17.1675 22.368 17.1601 22.3876C17.1408 22.4388 17.1228 22.4892 17.1244 22.5555C17.1903 22.5633 17.2733 22.5575 17.3327 22.55C17.3652 22.5629 17.3861 22.583 17.4161 22.5975C17.4104 22.5727 17.4375 22.568 17.4607 22.561C17.4504 22.5717 17.4344 22.5789 17.4399 22.5993C17.4534 22.6048 17.4556 22.5901 17.4667 22.5883C17.482 22.599 17.5014 22.5985 17.5173 22.5883C17.5286 22.5899 17.5256 22.6003 17.5381 22.6011C17.5557 22.5869 17.5305 22.5715 17.5232 22.561C17.5453 22.5681 17.5704 22.5734 17.5679 22.5956C17.5919 22.5867 17.6212 22.5651 17.6452 22.55C17.7072 22.558 17.7865 22.5618 17.8595 22.5573C17.857 22.4463 17.8131 22.3607 17.7702 22.2745C17.7821 22.2736 17.782 22.2832 17.7851 22.2873C17.8294 22.346 17.8688 22.4131 17.9012 22.4843C17.9059 22.4947 17.9138 22.5088 17.919 22.5227C17.9236 22.5348 17.9332 22.556 17.9309 22.5628C17.9258 22.5778 17.8855 22.5828 17.8773 22.5956C17.8526 22.5777 17.7812 22.5829 17.7137 22.581C17.6945 22.5805 17.6689 22.5772 17.6571 22.5792C17.6312 22.5838 17.6198 22.607 17.6065 22.6194C17.6432 22.6209 17.6722 22.5991 17.7047 22.5975C17.7254 22.5964 17.7556 22.6059 17.7821 22.6102C17.8588 22.6227 17.9444 22.6332 18.0143 22.6467C18.0185 22.5 17.957 22.3777 17.8744 22.2782C17.9565 22.3476 18.0118 22.4289 18.0529 22.5245C18.06 22.541 18.0662 22.5567 18.0708 22.5737C18.0773 22.5976 18.0776 22.6272 18.0976 22.6449C18.0729 22.6614 18.0432 22.6748 18.0172 22.6905C17.9441 22.6638 17.8028 22.6252 17.6839 22.6321C17.6554 22.6338 17.6303 22.6425 17.6095 22.654C17.6458 22.6629 17.671 22.6638 17.7196 22.6631C17.7317 22.663 17.7492 22.6599 17.7583 22.6613C17.7686 22.6629 17.7852 22.676 17.8 22.685C17.8859 22.7377 17.9628 22.7763 18.0648 22.8182C18.0967 22.8313 18.1147 22.8446 18.1511 22.8274C18.1572 23.0005 18.0822 23.1283 17.9904 23.2452C17.9797 23.2588 17.973 23.2746 17.9547 23.2853C18.0237 23.1855 18.0767 23.0668 18.0767 22.9277C18.0767 22.9131 18.0813 22.8949 18.0767 22.8821C18.0703 22.8639 18.0235 22.8445 17.9964 22.8292C17.9195 22.7857 17.8583 22.7551 17.7732 22.7142C17.7565 22.7062 17.7423 22.6954 17.7286 22.6923C17.714 22.6891 17.6912 22.6884 17.675 22.6869C17.6547 22.6849 17.6352 22.6844 17.6184 22.6832C17.6513 22.7049 17.7035 22.7318 17.7494 22.7525C17.7577 22.7571 17.7665 22.7509 17.7762 22.7507C17.787 22.9541 17.7624 23.1533 17.669 23.3017C17.6467 23.3372 17.622 23.3719 17.5827 23.3984C17.7096 23.258 17.7192 23.0168 17.6928 22.8055C17.7198 22.7911 17.7081 22.7792 17.6839 22.7617C17.6575 22.7425 17.6105 22.7145 17.5798 22.7051C17.5776 22.7146 17.5829 22.7239 17.5887 22.7325C17.5945 22.7411 17.6074 22.7485 17.6095 22.7562C17.614 22.7725 17.6032 22.8084 17.5976 22.8274C17.5792 22.8903 17.5404 22.9594 17.5053 23.0062C17.493 23.0052 17.5017 22.9914 17.4934 22.9879C17.4802 22.9883 17.4882 23.0018 17.4815 23.0062C17.4406 22.9633 17.4056 22.8924 17.3863 22.8274C17.3794 22.8041 17.3687 22.7762 17.3744 22.7562C17.3789 22.7403 17.4068 22.726 17.4042 22.7069C17.3769 22.7108 17.3515 22.7274 17.3298 22.7416C17.3081 22.7558 17.2856 22.771 17.2703 22.7872C17.2721 22.7952 17.2848 22.7966 17.2881 22.8036C17.2686 23.0175 17.2692 23.2582 17.4012 23.3966C17.3873 23.3955 17.3808 23.3846 17.3744 23.3784C17.2515 23.2579 17.2185 23.0722 17.2048 22.8803C17.2017 22.8379 17.1986 22.7964 17.2077 22.7544C17.2103 22.7456 17.2256 22.7586 17.2345 22.7525C17.2815 22.7309 17.3238 22.7063 17.3685 22.6832C17.3296 22.6869 17.2873 22.6857 17.2524 22.6942C17.2221 22.7015 17.1889 22.7218 17.1601 22.7361C17.0728 22.7798 16.9807 22.8271 16.9072 22.8766C16.8922 23.0394 16.953 23.1706 17.0262 23.2853C16.9206 23.159 16.8225 23.0186 16.8328 22.8274C16.873 22.8508 16.9343 22.8127 16.9667 22.7982C17.0568 22.7577 17.153 22.7056 17.2226 22.6613C17.273 22.6659 17.3322 22.6622 17.3744 22.6558C17.3218 22.6147 17.187 22.6354 17.1066 22.6504C17.0526 22.6604 17.0022 22.6749 16.9697 22.6905C16.9388 22.6778 16.9151 22.6607 16.8863 22.6467C16.9074 22.6143 16.9119 22.5597 16.928 22.5227C16.9673 22.4321 17.0287 22.3519 17.1036 22.2782C17.1016 22.2922 17.0858 22.3042 17.0768 22.3165C17.0116 22.4054 16.9686 22.5156 16.9667 22.6449C17.0355 22.6353 17.1176 22.6235 17.1988 22.6102C17.2253 22.6059 17.2527 22.597 17.2732 22.5975C17.3063 22.5982 17.3374 22.6191 17.3744 22.6194C17.3656 22.6022 17.3488 22.59 17.3298 22.5792C17.2685 22.5835 17.2 22.5768 17.1453 22.5829C17.1397 22.5835 17.1324 22.5855 17.1244 22.5883C17.1251 22.5881 17.1067 22.5956 17.1095 22.5956C17.0972 22.5956 17.0669 22.5692 17.053 22.5664C17.0816 22.4544 17.1461 22.3645 17.2077 22.2727Z" fill="#000072"/>
<path fill-rule="evenodd" clip-rule="evenodd" d="M17.502 21.1543V24.3047V21.1543Z" fill="#000072"/>
<path d="M17.502 21.1543V24.3047" stroke="#000072" stroke-width="0.2" stroke-miterlimit="10"/>
<path d="M16.4042 21.1322C16.4042 21.1322 16.5973 23.713 16.3145 24.1699" stroke="#000072" stroke-width="0.2" stroke-miterlimit="10"/>
<path d="M15.5376 21.0836C15.5376 21.0836 15.973 22.2777 15.3438 23.8906" stroke="#000072" stroke-width="0.2" stroke-miterlimit="10"/>
<path d="M18.5016 21.1534C18.5016 21.1534 18.2997 23.4402 18.5917 24.2188" stroke="#000072" stroke-width="0.2" stroke-miterlimit="10"/>
<path d="M19.531 21.0836C19.531 21.0836 19.0693 23.3512 19.7548 23.8906" stroke="#000072" stroke-width="0.2" stroke-miterlimit="10"/>
<path d="M14.6367 21.5371C14.6367 21.5371 15.0715 21.1649 15.6426 21.5371C15.6426 21.5371 15.9403 21.1677 16.4353 21.5879C16.4353 21.5879 16.7052 21.1278 17.4998 21.5371C17.4998 21.5371 17.8352 21.1525 18.4368 21.5371C18.4368 21.5371 18.9095 21.1101 19.4632 21.5159C19.4632 21.5159 19.9568 21.034 20.3842 21.4644" stroke="#000072" stroke-width="0.2" stroke-miterlimit="10"/>
<path d="M17.4377 22.1281C17.4221 22.1182 17.4067 22.1089 17.3914 22.1001C16.8502 21.789 16.4575 22.1367 16.4575 22.1367C16.056 21.763 15.6837 22.1367 15.6837 22.1367C15.0596 21.4838 14.7227 22.1367 14.7227 22.1367" stroke="#000072" stroke-width="0.2" stroke-miterlimit="10"/>
<path d="M17.4219 22.1347C17.4219 22.1347 17.9152 21.7799 18.4342 22.1347C18.4342 22.1347 18.9384 21.6956 19.3799 22.1543C19.3799 22.1543 20.0352 21.702 20.2796 22.1452" stroke="#000072" stroke-width="0.2" stroke-miterlimit="10"/>
<path d="M14.7227 23.2263C14.7227 23.2263 15.1231 22.6348 15.5445 23.2765C15.5445 23.2765 16.3002 22.8083 16.461 23.4622C16.461 23.4622 17.0868 23.1769 17.5242 23.6465C17.5242 23.6465 17.9876 23.1604 18.5244 23.5311C18.5244 23.5311 18.8828 22.7877 19.4894 23.3613C19.4894 23.3613 19.8631 22.7414 20.2798 23.0951" stroke="#000072" stroke-width="0.2" stroke-miterlimit="10"/>
<path d="M14.6836 23.5807C14.6836 23.5807 15.205 23.1064 15.4331 23.6472C15.4331 23.6472 16.1841 23.3426 16.3938 23.8904C16.3938 23.8904 17.1699 23.5253 17.493 24.1094C17.493 24.1094 17.9522 23.7213 18.5043 23.985C18.5043 23.985 19.0116 23.3005 19.5989 23.7045C19.5989 23.7045 20.0168 23.0644 20.2668 23.4629" stroke="#000072" stroke-width="0.2" stroke-miterlimit="10"/>
<path d="M10.1094 28.7322C10.1094 28.7322 12.4205 26.5534 15.3417 26.7638L16.0057 28.5929C16.0057 28.5929 15.288 31.3087 10.763 30.3936L10.1094 28.7322Z" fill="#000072"/>
<path d="M10.1094 28.7322C10.1094 28.7322 12.4205 26.5534 15.3417 26.7638L16.0057 28.5929C16.0057 28.5929 15.288 31.3087 10.763 30.3936L10.1094 28.7322Z" stroke="#000072" stroke-width="0.2" stroke-miterlimit="10"/>
<path d="M18.8906 29.0432L19.5711 26.4482L22.778 27.3226L24.6887 28.2954V29.0432L24.24 30.3943C24.24 30.3943 21.0295 31.3421 18.8906 29.0432Z" fill="#000072"/>
<path d="M18.8906 29.0432L19.5711 26.4482L22.778 27.3226L24.6887 28.2954V29.0432L24.24 30.3943C24.24 30.3943 21.0295 31.3421 18.8906 29.0432Z" stroke="#000072" stroke-width="0.2" stroke-miterlimit="10"/>
<path d="M2.66016 25.5875L5.12893 31.3281" stroke="#000072" stroke-width="0.2" stroke-miterlimit="10"/>
<path d="M2.01953 26.3125C2.01953 26.3125 2.44611 28.9698 4.30825 31.2852" stroke="#000072" stroke-width="0.2" stroke-miterlimit="10"/>
<path d="M3.66211 25.3671C3.66211 25.3671 5.59035 28.3029 5.88827 31.375" stroke="#000072" stroke-width="0.2" stroke-miterlimit="10"/>
<path d="M4.89844 25.5875C4.89844 25.5875 6.06791 27.6782 6.72724 31.3281" stroke="#000072" stroke-width="0.2" stroke-miterlimit="10"/>
<path d="M1.75781 27.5527C1.75781 27.5527 1.76269 26.9648 2.22875 27.1927C2.22875 27.1927 2.40217 26.1645 3.16398 26.8173C3.16398 26.8173 3.19283 25.7734 4.25747 26.3993C4.25747 26.3993 4.56113 25.6333 5.19884 26.3128C5.19884 26.3128 5.51512 26.156 5.71862 26.5095" stroke="#000072" stroke-width="0.2" stroke-miterlimit="10"/>
<path d="M2.08984 26.6719C2.08984 26.6719 2.25329 25.9115 2.90395 26.1634C2.90395 26.1634 3.03278 25.5384 3.89081 25.7462C3.89081 25.7462 4.01706 25.3374 5.03519 25.8599" stroke="#000072" stroke-width="0.2" stroke-miterlimit="10"/>
<path d="M1.84766 27.8652C1.84766 27.8652 1.88358 27.276 2.38062 27.686C2.38062 27.686 2.53723 26.6658 3.40561 27.3232C3.40561 27.3232 3.42886 26.3243 4.43935 26.8888C4.43935 26.8888 4.81113 26.3311 5.4591 26.817C5.4591 26.817 5.57482 26.5267 5.89816 26.817" stroke="#000072" stroke-width="0.2" stroke-miterlimit="10"/>
<path d="M1.84766 28.3711C1.84766 28.3711 2.04939 27.8045 2.60133 28.2964C2.60133 28.2964 2.93909 27.3712 3.66167 27.9973C3.66167 27.9973 3.95277 26.7624 4.83911 27.6106C4.83911 27.6106 4.97696 26.8042 5.68191 27.4008C5.68191 27.4008 5.73541 26.9057 6.10706 27.3032" stroke="#000072" stroke-width="0.2" stroke-miterlimit="10"/>
<path d="M2.01953 28.7988C2.01953 28.7988 2.20723 28.3321 2.75413 28.6672C2.75413 28.6672 3.34875 27.9305 3.89443 28.4581C3.89443 28.4581 4.48002 27.6652 5.03881 28.2678C5.03881 28.2678 5.32945 27.5238 5.90413 28.0417C5.90413 28.0417 6.11708 27.7644 6.2891 28.0043" stroke="#000072" stroke-width="0.2" stroke-miterlimit="10"/>
<path d="M2.21484 29.3477C2.21484 29.3477 2.54541 28.8393 2.96805 29.1429C2.96805 29.1429 3.33838 28.5635 4.14537 29.0462C4.14537 29.0462 4.52943 28.2618 5.31964 28.8541C5.31964 28.8541 5.6054 28.1867 6.10566 28.7919C6.10566 28.7919 6.10756 28.1442 6.45779 28.4576" stroke="#000072" stroke-width="0.2" stroke-miterlimit="10"/>
<path d="M2.46094 29.9883V29.8252C2.46094 29.8252 2.68239 29.2305 3.21263 29.6184C3.21263 29.6184 3.76012 29.0557 4.33943 29.4899C4.33943 29.4899 4.93807 28.7872 5.47959 29.3474C5.47959 29.3474 5.80565 28.7332 6.29002 29.3451" stroke="#000072" stroke-width="0.2" stroke-miterlimit="10"/>
<path d="M2.87305 30.1895C2.87305 30.1895 2.89357 29.873 3.41886 29.99C3.41886 29.99 3.98193 29.6075 4.54178 29.9641C4.54178 29.9641 4.93678 29.3358 5.60713 29.812C5.60713 29.812 6.07131 29.3224 6.38893 29.737" stroke="#000072" stroke-width="0.2" stroke-miterlimit="10"/>
<path d="M3.16406 30.582C3.16406 30.582 3.36699 30.3052 3.7383 30.5016C3.7383 30.5016 4.2204 30.0821 4.74374 30.4312C4.74374 30.4312 5.1078 29.9364 5.72025 30.2924C5.72025 30.2924 6.10858 29.8412 6.49623 30.1872" stroke="#000072" stroke-width="0.2" stroke-miterlimit="10"/>
<path d="M3.56445 30.8633C3.56445 30.8633 3.62814 30.5702 3.97644 30.8504C3.97644 30.8504 4.38332 30.6161 4.89775 30.8633C4.89775 30.8633 5.45884 30.5479 5.81216 30.7962C5.81216 30.7962 6.27152 30.4867 6.57677 30.7821" stroke="#000072" stroke-width="0.2" stroke-miterlimit="10"/>
<path d="M4.1543 31.0688C4.1543 31.0688 4.42488 30.8141 5.03878 31.1191C5.03878 31.1191 5.37574 30.9347 5.68437 30.9997C5.72845 31.009 5.77197 31.0234 5.81384 31.0441" stroke="#000072" stroke-width="0.2" stroke-miterlimit="10"/>
<path d="M5.85547 31.1211C5.85547 31.1211 6.16762 30.8762 6.69787 31.0448" stroke="#000072" stroke-width="0.2" stroke-miterlimit="10"/>
<path d="M6.45913 28.3718C6.36599 28.5616 6.72741 31.5488 6.72741 31.5488H11.2354L11.1394 31.3277L10.1112 29.5688L9.46759 27.9165C8.00916 27.731 6.57761 24.6681 6.57761 24.6681L5.5625 25.6362L5.813 26.1627L6.28825 27.1478L6.45913 28.3718Z" fill="#000072"/>
<path d="M32.1598 25.4486L29.9531 31.3281" stroke="#000072" stroke-width="0.2" stroke-miterlimit="10"/>
<path d="M32.7476 26.166C32.7476 26.166 32.3553 29.9179 30.5137 31.418" stroke="#000072" stroke-width="0.2" stroke-miterlimit="10"/>
<path d="M31.3077 25.4122C31.3077 25.4122 29.8132 28.6312 29.1035 31.3633" stroke="#000072" stroke-width="0.2" stroke-miterlimit="10"/>
<path d="M30.0641 25.6941C30.0641 25.6941 28.9764 27.5232 28.4121 31.7031" stroke="#000072" stroke-width="0.2" stroke-miterlimit="10"/>
<path d="M33.111 27.1582C33.111 27.1582 32.992 26.6381 32.6149 26.9882C32.6149 26.9882 32.4574 26.0585 31.7137 26.6325C31.7137 26.6325 31.5037 25.8402 30.851 26.4492C30.851 26.4492 30.343 25.6919 29.7103 26.4492C29.7103 26.4492 29.5795 26.2575 29.2734 26.5096" stroke="#000072" stroke-width="0.2" stroke-miterlimit="10"/>
<path d="M33.1494 27.6836C33.1494 27.6836 33.0097 27.1733 32.4953 27.552C32.4953 27.552 32.1962 26.9125 31.4547 27.3227C31.4547 27.3227 31.2808 26.675 30.5101 27.0969C30.5101 27.0969 30.2824 26.6038 29.5148 26.9542C29.5148 26.9542 29.3352 26.6423 29.0137 26.9817" stroke="#000072" stroke-width="0.2" stroke-miterlimit="10"/>
<path d="M33.1464 28.2969C33.1464 28.2969 32.8526 27.7473 32.3508 28.1033C32.3508 28.1033 31.8817 27.5074 31.2039 27.9833C31.2039 27.9833 30.9476 27.4024 30.2959 27.799C30.2959 27.799 29.9624 27.1585 29.2705 27.6111C29.2705 27.6111 29.1436 27.2734 28.6406 27.5533" stroke="#000072" stroke-width="0.2" stroke-miterlimit="10"/>
<path d="M33.0269 28.793C33.0269 28.793 32.8538 28.2496 32.1687 28.7003C32.1687 28.7003 31.7019 28.0028 31.0048 28.5192C31.0048 28.5192 30.7035 27.8085 30.0647 28.3891C30.0647 28.3891 29.8632 27.8109 29.1026 28.2502C29.1026 28.2502 28.9912 27.7978 28.6666 28.186C28.3419 28.5742 28.5808 28.1788 28.5808 28.1788" stroke="#000072" stroke-width="0.2" stroke-miterlimit="10"/>
<path d="M32.8431 29.332C32.8431 29.332 32.5952 28.7254 31.9843 29.2017C31.9843 29.2017 31.602 28.7064 30.817 29.0192C30.817 29.0192 30.3425 28.5082 29.7923 29.019C29.7923 29.019 29.4176 28.4995 28.9256 28.9323C28.9256 28.9323 28.734 28.0798 28.2715 28.9036" stroke="#000072" stroke-width="0.2" stroke-miterlimit="10"/>
<path d="M32.471 29.752C32.471 29.752 32.4559 29.1978 31.7967 29.6435C31.7967 29.6435 31.3624 29.0999 30.5977 29.611C30.5977 29.611 30.1843 29.0516 29.6252 29.6428C29.6252 29.6428 29.2443 29.1006 28.7718 29.6255C28.7718 29.6255 28.7569 28.7217 28.1191 29.4302" stroke="#000072" stroke-width="0.2" stroke-miterlimit="10"/>
<path d="M32.156 30.2207C32.156 30.2207 32.0579 29.9183 31.5314 30.1519C31.5314 30.1519 30.9595 29.7668 30.3943 30.142C30.3943 30.142 30.068 29.7306 29.4709 30.0992C29.4709 30.0992 28.9795 29.7151 28.6418 30.0833C28.6418 30.0833 28.6716 29.396 27.9551 29.9237" stroke="#000072" stroke-width="0.2" stroke-miterlimit="10"/>
<path d="M31.7769 30.5882C31.7769 30.5882 31.6961 30.2468 31.2588 30.5882C31.2588 30.5882 30.7622 30.2888 30.2039 30.6504C30.2039 30.6504 29.6545 30.3383 29.301 30.6504C29.301 30.6504 28.9222 30.19 28.5215 30.6504C28.5215 30.6504 28.3988 30.042 28.0117 30.5434" stroke="#000072" stroke-width="0.2" stroke-miterlimit="10"/>
<path d="M31.4446 30.764C31.4446 30.764 31.2633 30.6152 31.0814 30.8306C31.0814 30.8306 30.3554 30.6393 30.0657 31.0234C30.0657 31.0234 29.7539 30.7187 29.1954 31.0234C29.1954 31.0234 28.9225 30.5734 28.5133 31.0234C28.5133 31.0234 28.2878 30.4251 27.8652 31.0234" stroke="#000072" stroke-width="0.2" stroke-miterlimit="10"/>
<path d="M25.683 27.8686L27.1318 26.6164L28.2714 24.8829L28.4125 24.4982L29.369 25.4486L29.4441 25.9208L28.9256 26.4486L28.6426 27.0972L28.522 27.8686V28.2829L28.5122 28.5594C28.5122 28.5594 28.0174 30.651 28.2714 31.4741L23.8588 31.5723L23.7148 31.3281L24.4356 30.0727L25.2267 28.4071L25.683 27.8686Z" fill="#000072"/>
<path d="M24.8752 19.7483C24.8752 19.7483 21.3438 25.8936 20.9473 27.6094" stroke="#000072" stroke-width="0.2" stroke-miterlimit="10"/>
<path d="M23.7459 20.2207C23.7459 20.2207 20.2939 26.4171 20.5992 26.9414" stroke="#000072" stroke-width="0.2" stroke-miterlimit="10"/>
<path d="M27.0444 19.8825C27.0444 19.8825 24.4199 26.2931 23.1992 27.791" stroke="#000072" stroke-width="0.2" stroke-miterlimit="10"/>
<path d="M22.3105 21.1548C22.3105 21.1548 23.1092 20.3969 23.3066 21.0296C23.3066 21.0296 23.8428 20.3215 24.2797 20.8065C24.2797 20.8065 25.3203 20.0551 25.4869 20.8957C25.4869 20.8957 26.433 20.2273 26.5118 21.1548C26.5118 21.1548 26.8553 21.0677 26.847 21.8469C26.847 21.8469 27.1556 22.4523 27.066 22.6875" stroke="#000072" stroke-width="0.2" stroke-miterlimit="10"/>
<path d="M23.623 20.4452C23.623 20.4452 24.2484 19.9387 24.6053 20.2213C24.6053 20.2213 25.4468 19.4565 25.8855 20.0928C25.8855 20.0928 26.7176 19.9609 26.7323 20.6279C26.7323 20.6279 27.0692 21.007 27.043 21.1546C27.043 21.1546 26.6573 23.4784 25.9197 24.8594C25.9197 24.8594 24.9417 27.8685 23.9458 28.1094" stroke="#000072" stroke-width="0.2" stroke-miterlimit="10"/>
<path d="M22.1875 21.6218C22.1875 21.6218 22.6875 21.0621 22.984 21.6218C22.984 21.6218 23.7171 20.988 23.7468 21.6218C23.7468 21.6218 24.9041 21.12 25.0569 21.7496C25.0569 21.7496 25.9114 21.2034 26.0841 22.1373C26.0841 22.1373 26.9055 21.8618 26.645 22.8121C26.645 22.8121 27.1007 22.7051 27.0148 23.3027" stroke="#000072" stroke-width="0.2" stroke-miterlimit="10"/>
<path d="M21.7363 22.3196C21.7363 22.3196 22.4629 21.7109 22.5543 22.4272C22.5543 22.4272 23.2578 21.8129 23.2963 22.5894C23.2963 22.5894 24.5533 22.0107 24.5246 22.8102C24.5246 22.8102 25.4026 22.5592 25.5602 23.3117C25.5602 23.3117 26.3187 23.0848 26.3976 23.7197C26.3976 23.7197 26.957 23.6885 26.9046 24.0938" stroke="#000072" stroke-width="0.2" stroke-miterlimit="10"/>
<path d="M21.3535 23.0955C21.3535 23.0955 21.9133 22.2573 22.2536 23.0905C22.2536 23.0905 22.7064 22.7242 22.9119 23.2432C22.9119 23.2432 24.0131 22.9137 24.1096 23.6469C24.1096 23.6469 24.8548 23.227 25.2262 23.8901C25.2262 23.8901 26.0905 23.7621 26.2162 24.2194C26.2162 24.2194 26.6103 24.1093 26.7517 24.498" stroke="#000072" stroke-width="0.2" stroke-miterlimit="10"/>
<path d="M21.1348 23.5823C21.1348 23.5823 21.6528 23.3395 21.8072 23.8913C21.8072 23.8913 22.3437 23.4703 22.5592 23.9753C22.5592 23.9753 23.4376 23.674 23.7193 24.3057C23.7193 24.3057 24.6709 23.982 24.9803 24.5779C24.9803 24.5779 25.6256 24.4241 25.9777 24.8167C25.9777 24.8167 26.4058 24.6725 26.4642 25.0645" stroke="#000072" stroke-width="0.2" stroke-miterlimit="10"/>
<path d="M20.7578 24.2288C20.7578 24.2288 21.476 23.7502 21.4748 24.553C21.4748 24.553 22.0987 24.1571 22.1857 24.6514C22.1857 24.6514 23.157 24.3989 23.397 25.0627C23.397 25.0627 24.2056 24.5342 24.6048 25.3408C24.6048 25.3408 25.4368 24.9413 25.6254 25.5996" stroke="#000072" stroke-width="0.2" stroke-miterlimit="10"/>
<path d="M20.4941 24.9974C20.4941 24.9974 21.0491 24.4606 21.2344 25.0626C21.2344 25.0626 21.7454 24.6749 21.934 25.2254C21.934 25.2254 22.8278 25.0031 23.1297 25.5996C23.1297 25.5996 23.932 25.2908 24.3225 25.9041C24.3225 25.9041 25.0162 25.5076 25.3745 26.1113" stroke="#000072" stroke-width="0.2" stroke-miterlimit="10"/>
<path d="M20.2461 25.5046C20.2461 25.5046 20.8149 25.189 20.9939 25.6001C20.9939 25.6001 21.4921 25.2914 21.6839 25.7502C21.6839 25.7502 22.6611 25.5699 22.8127 26.1119C22.8127 26.1119 23.7047 25.8831 24.051 26.4229C24.051 26.4229 24.7287 26.2077 25.1211 26.6346C25.1211 26.6346 25.2799 26.5493 25.2796 26.9414" stroke="#000072" stroke-width="0.2" stroke-miterlimit="10"/>
<path d="M20.0254 25.9812C20.0254 25.9812 20.6333 25.7017 20.7565 26.0601C20.7565 26.0601 21.4087 25.8257 21.4613 26.2267C21.4613 26.2267 22.5673 26.0022 22.633 26.5872C22.633 26.5872 23.6123 26.3242 23.757 26.9408C23.757 26.9408 24.606 26.6276 24.7936 27.3223C24.7936 27.3223 25.1248 27.1815 25.2207 27.6094" stroke="#000072" stroke-width="0.2" stroke-miterlimit="10"/>
<path d="M9.56836 19.3014C9.56836 19.3014 12.7163 23.9419 13.4519 26.9414" stroke="#000072" stroke-width="0.2" stroke-miterlimit="10"/>
<path d="M11.377 20.1966C11.377 20.1966 13.7287 24.0603 14.5095 26.6172" stroke="#000072" stroke-width="0.2" stroke-miterlimit="10"/>
<path d="M8.05664 20.0385C8.05664 20.0385 10.7981 27.0092 11.6959 27.5527" stroke="#000072" stroke-width="0.2" stroke-miterlimit="10"/>
<path d="M7.94531 21.3397C7.94531 21.3397 10.1626 27.5514 10.824 27.8691" stroke="#000072" stroke-width="0.2" stroke-miterlimit="10"/>
<path d="M8.25586 20.3184C8.25586 20.3184 8.31702 19.5892 8.97943 20.0115C8.97943 20.0115 9.24336 19.4891 9.99377 19.9449C9.99377 19.9449 10.193 19.6652 10.8269 19.8929" stroke="#000072" stroke-width="0.2" stroke-miterlimit="10"/>
<path d="M8.0957 21.748C8.0957 21.748 8.15508 21.2349 8.62251 21.4356C8.62251 21.4356 8.76721 20.7246 9.57162 21.2216C9.57162 21.2216 9.72089 20.4737 10.6088 20.9314C10.6088 20.9314 11.1668 20.276 11.8095 20.9314C11.8095 20.9314 12.2797 20.5396 12.6231 20.9314" stroke="#000072" stroke-width="0.2" stroke-miterlimit="10"/>
<path d="M7.94531 21.1328C7.94531 21.1328 8.1515 20.8205 8.39919 20.9322C8.39919 20.9322 8.66622 20.2531 9.24289 20.5556C9.24289 20.5556 9.60832 20.0633 10.2678 20.3827C10.2678 20.3827 10.9544 20.0992 11.3752 20.2749" stroke="#000072" stroke-width="0.2" stroke-miterlimit="10"/>
<path d="M7.87109 22.7207C7.87109 22.7207 7.95036 22.3754 8.40015 22.5741C8.40015 22.5741 8.46214 22.0521 8.97756 22.3219C8.97756 22.3219 9.10977 21.6052 10.0271 22.049C10.0271 22.049 10.1197 21.2128 11.0932 21.7478C11.0932 21.7478 11.5214 21.1067 12.1699 21.569C12.1699 21.569 12.2422 21.2039 12.7391 21.5144" stroke="#000072" stroke-width="0.2" stroke-miterlimit="10"/>
<path d="M7.94531 23.5273C7.94531 23.5273 8.15051 22.956 8.67428 23.3012C8.67428 23.3012 8.7826 22.6918 9.32102 23.0949C9.32102 23.0949 9.71992 22.5348 10.3041 22.8105C10.3041 22.8105 10.8297 22.0507 11.5113 22.486C11.5113 22.486 12.0061 21.9008 12.5404 22.2463C12.5404 22.2463 12.5594 22.0231 13.0651 22.1358" stroke="#000072" stroke-width="0.2" stroke-miterlimit="10"/>
<path d="M8.0957 24.0938C8.0957 24.0938 8.23669 23.5063 8.90047 23.8892C8.90047 23.8892 9.2087 23.4874 9.61027 23.758C9.61027 23.758 9.95572 23.0784 10.6694 23.4693C10.6694 23.4693 11.1485 22.8505 11.9181 23.24C11.9181 23.24 12.2697 22.7233 12.9472 23.0193C12.9472 23.0193 12.8897 22.7157 13.4041 22.909" stroke="#000072" stroke-width="0.2" stroke-miterlimit="10"/>
<path d="M8.35938 24.668C8.35938 24.668 8.51391 24.1524 9.04968 24.4112C9.04968 24.4112 9.36891 23.8717 9.85382 24.2784C9.85382 24.2784 10.0676 23.5925 10.9748 24.0614C10.9748 24.0614 11.4077 23.4627 12.2052 23.7555C12.2052 23.7555 12.5219 23.1894 13.2358 23.5357C13.2358 23.5357 13.3842 23.2547 13.7447 23.4794" stroke="#000072" stroke-width="0.2" stroke-miterlimit="10"/>
<path d="M8.39648 25.1797C8.39648 25.1797 8.6139 24.5196 9.20778 24.6679C9.20778 24.6679 9.74139 24.4103 10.0104 24.6462C10.0104 24.6462 10.7775 24.1294 11.1715 24.4975C11.1715 24.4975 11.9642 23.9356 12.4446 24.2935C12.4446 24.2935 12.9859 23.8858 13.5158 24.1698C13.5158 24.1698 13.8062 23.8827 14.1648 24.094" stroke="#000072" stroke-width="0.2" stroke-miterlimit="10"/>
<path d="M14.5069 24.8839C14.5069 24.8839 13.9548 24.2297 13.8266 24.8451C13.8266 24.8451 12.8841 24.3387 12.7953 25.0643C12.7953 25.0643 11.8694 24.4408 11.5438 25.2554C11.5438 25.2554 10.5971 24.7887 10.3565 25.4458C10.3565 25.4458 9.75268 24.8796 9.65941 25.6013C9.65941 25.6013 9.34418 25.4933 9.28906 25.7734" stroke="#000072" stroke-width="0.2" stroke-miterlimit="10"/>
<path d="M14.7559 25.4447C14.7559 25.4447 14.2454 24.9393 14.1096 25.5123C14.1096 25.5123 13.3592 25.0697 13.0419 25.6682C13.0419 25.6682 12.2326 25.3015 11.9182 25.9818C11.9182 25.9818 11.0525 25.5491 10.8229 26.295C10.8229 26.295 10.2284 26.0793 10.025 26.6178C10.025 26.6178 9.71935 26.5452 9.56836 26.9414" stroke="#000072" stroke-width="0.2" stroke-miterlimit="10"/>
<path d="M14.8762 25.8778C14.8762 25.8778 14.4909 25.2536 14.311 26.0308C14.311 26.0308 13.8329 25.7642 13.2731 26.3119C13.2731 26.3119 12.5571 26.092 12.164 26.517C12.164 26.517 11.5969 26.3771 11.1854 26.7502C11.1628 26.7707 11.1407 26.7927 11.1191 26.8164" stroke="#000072" stroke-width="0.2" stroke-miterlimit="10"/>
<path d="M11.1389 26.793C11.1389 26.793 10.61 26.75 10.3352 27.1921C10.3352 27.1921 9.9536 27.2067 9.7774 27.61C9.6012 28.0133 9.69472 27.5522 9.69472 27.5522" stroke="#000072" stroke-width="0.2" stroke-miterlimit="10"/>
<path fill-rule="evenodd" clip-rule="evenodd" d="M17.4532 2.90566C23.5281 2.90566 28.2013 8.57589 28.2013 13.3105C28.2013 18.0453 19.6357 19.9586 17.4532 20.0519C15.2706 20.1452 6.25977 17.9064 6.25977 13.1717C6.25977 8.43696 11.3783 2.90566 17.4532 2.90566Z" fill="#FF850B"/>
<path d="M17.4561 3.13634C11.3978 3.13634 6.51939 8.62652 6.51939 13.1722C6.51939 14.3542 7.11841 15.4657 8.29991 16.476C10.9316 18.7263 15.7331 19.8247 17.3207 19.8248C17.3643 19.8248 17.4052 19.824 17.4439 19.8223C18.5941 19.7732 21.2439 19.2423 23.5338 18.2162C25.5473 17.3139 27.9474 15.7305 27.9474 13.311C27.9474 8.60579 23.3646 3.13634 17.4561 3.13634ZM17.3272 20.2852C15.6242 20.2852 10.7161 19.1782 7.94559 16.8093C6.65853 15.7087 6.00586 14.485 6.00586 13.1722C6.00586 10.8022 7.27205 8.16108 9.39293 6.10715C11.6446 3.92653 14.5835 2.67586 17.4561 2.67586C20.3466 2.67586 23.1332 3.92134 25.3028 6.18289C27.2803 8.24421 28.461 10.9089 28.461 13.311C28.461 15.4124 26.8365 17.251 23.7633 18.6281C21.4067 19.6842 18.6635 20.2312 17.4683 20.2823C17.4242 20.2842 17.377 20.2852 17.3272 20.2852Z" fill="#000072"/>
<g opacity="0.5">
<g opacity="0.5">
<path opacity="0.5" fill-rule="evenodd" clip-rule="evenodd" d="M17.4528 2.90612C21.1864 2.90612 24.3901 5.04827 26.3052 7.79835C26.3251 7.88722 26.3443 7.97646 26.3612 8.06641C24.6127 5.76791 21.8864 4.25225 18.8672 3.8434C19.0608 3.90899 19.173 3.98688 19.173 4.07048C19.173 4.30418 18.2953 4.49362 17.2127 4.49362C16.1302 4.49362 15.2525 4.30418 15.2525 4.07048C15.2525 3.98688 15.3645 3.90899 15.5583 3.8434C12.5389 4.25234 9.81293 5.76809 8.06445 8.06641L8.07411 8.01795C10.0902 5.15802 13.5767 2.90612 17.4528 2.90612Z" fill="white"/>
</g>
</g>
<path fill-rule="evenodd" clip-rule="evenodd" d="M27.9128 14.7653C26.4022 18.4423 19.3967 19.9688 17.4532 20.0519C15.5296 20.1342 8.30351 18.4045 6.61523 14.7519C6.74467 12.7623 7.87178 12.2185 9.95617 13.1908C10.8134 13.5905 11.6853 14.0075 12.3763 13.69C16.3202 11.8772 18.7283 12.219 21.4278 13.69C22.6902 14.378 23.9221 13.3518 24.695 13.0389C27.1567 12.0421 28.2861 12.7393 27.9128 14.7653Z" fill="white"/>
<g opacity="0.300003">
<g opacity="0.300003">
<path opacity="0.300003" fill-rule="evenodd" clip-rule="evenodd" d="M28.1545 12.4834C28.1851 12.7613 28.2013 13.0373 28.2013 13.3102C28.2013 13.4846 28.1883 13.6546 28.1659 13.8215L28.1682 13.7716C27.8682 16.9313 20.773 19.344 16.956 19.5387C13.7698 19.7014 7.40608 16.6255 6.33607 13.7716C6.33806 13.8308 6.34145 13.8898 6.34443 13.9488C6.28992 13.6975 6.25977 13.4386 6.25977 13.1714C6.25977 12.9586 6.27051 12.7443 6.2907 12.5288L6.30732 12.4827C8.79467 15.6897 12.8751 17.6019 17.2313 17.6019C21.587 17.6019 25.6672 15.6898 28.1545 12.4834Z" fill="#000072"/>
</g>
</g>
<path fill-rule="evenodd" clip-rule="evenodd" d="M13.5246 10.9696C13.1849 10.8338 12.8372 10.6062 12.4819 10.2872C11.8659 10.3123 11.373 10.9024 11.373 11.6266C11.373 12.3667 11.8877 12.9668 12.5224 12.9668C13.1573 12.9668 13.672 12.3667 13.672 11.6266C13.672 11.3879 13.6184 11.1638 13.5246 10.9696Z" fill="#000072"/>
<path d="M23.173 9.70925C22.7584 10.2031 22.3508 10.5851 21.9502 10.855C21.3609 11.252 20.723 11.3216 20.6523 10.8842C20.9694 10.8517 21.2997 10.7195 21.6433 10.4881C22.4901 9.91734 22.7548 9.54989 23.173 9.70925Z" fill="#000072"/>
<path fill-rule="evenodd" clip-rule="evenodd" d="M21.2392 10.9696C21.5788 10.8338 21.9266 10.6062 22.282 10.2872C22.898 10.3123 23.3907 10.9024 23.3907 11.6266C23.3907 12.3667 22.8762 12.9668 22.2413 12.9668C21.6064 12.9668 21.0918 12.3667 21.0918 11.6266C21.0918 11.3879 21.1453 11.1638 21.2392 10.9696Z" fill="#000072"/>
<path fill-rule="evenodd" clip-rule="evenodd" d="M21.7633 11.2869C21.5768 11.2869 21.4258 11.4312 21.4258 11.6092C21.4258 11.7873 21.5768 11.9316 21.7633 11.9316C21.9496 11.9316 22.1007 11.7873 22.1007 11.6092C22.1007 11.4312 21.9496 11.2869 21.7633 11.2869Z" fill="white"/>
<path fill-rule="evenodd" clip-rule="evenodd" d="M17.2345 11.8629C18.0565 11.8629 18.7229 12.2613 18.7229 12.7527C18.7229 13.2442 18.0565 13.6426 17.2345 13.6426C16.4124 13.6426 15.7461 13.2442 15.7461 12.7527C15.7461 12.2613 16.4124 11.8629 17.2345 11.8629Z" fill="#000072"/>
<path d="M18.6551 14.7324C18.1312 14.7324 17.6245 14.5577 17.2356 14.2455C16.8013 14.6002 16.2027 14.7652 15.6143 14.6813C14.9307 14.5839 14.3511 14.1637 14.1013 13.5848C14.0502 13.4662 14.1159 13.3329 14.2482 13.287C14.3804 13.2412 14.5291 13.3001 14.5803 13.4187C14.7642 13.8452 15.1913 14.1547 15.6949 14.2265C16.1987 14.2983 16.7116 14.1228 17.034 13.7686C17.0821 13.7157 17.154 13.6847 17.2301 13.684C17.3068 13.684 17.3787 13.7128 17.4282 13.7647C17.7644 14.1181 18.2723 14.3058 18.7891 14.2669C19.3052 14.2281 19.7719 13.9669 20.0377 13.5683C20.1104 13.4591 20.2683 13.4235 20.3898 13.4888C20.5115 13.554 20.5512 13.6954 20.4784 13.8045C20.128 14.3302 19.5126 14.6746 18.8321 14.7258C18.773 14.7302 18.7139 14.7324 18.6551 14.7324Z" fill="#000072"/>
<path fill-rule="evenodd" clip-rule="evenodd" d="M17.2336 13.9145C17.7688 14.3707 18.2946 14.5648 18.8112 14.4966C18.939 17.5038 15.5395 17.3813 15.6552 14.4542C16.2885 14.5262 16.8145 14.3464 17.2336 13.9145Z" fill="#000072"/>
<path d="M15.9118 14.7009C15.9372 15.4671 16.2403 16.0695 16.745 16.3375C17.0785 16.5145 17.4553 16.517 17.7789 16.3442C18.2621 16.0861 18.54 15.5084 18.5579 14.7403C18.121 14.7278 17.6821 14.5582 17.2475 14.234C16.8733 14.5445 16.4297 14.7009 15.9234 14.7009C15.9196 14.7009 15.9157 14.7009 15.9118 14.7009ZM17.2727 16.9316C17.003 16.9317 16.7318 16.8657 16.4834 16.7338C15.7525 16.3457 15.3574 15.5121 15.3995 14.4469L15.4095 14.1949L15.6884 14.2267C16.2367 14.289 16.6784 14.1377 17.0407 13.7643L17.2168 13.5828L17.4113 13.7485C17.8907 14.1571 18.3371 14.3277 18.7747 14.2697L19.0578 14.2324L19.0686 14.4888C19.1136 15.5467 18.7392 16.3672 18.0417 16.7398C17.8022 16.8677 17.5381 16.9316 17.2727 16.9316Z" fill="#000072"/>
<path fill-rule="evenodd" clip-rule="evenodd" d="M17.2623 15.5775C16.8052 15.5775 16.3759 15.7738 16.1074 16.1052C16.7254 16.8945 17.8212 16.9074 18.4116 16.0985C18.1428 15.7711 17.7161 15.5775 17.2623 15.5775Z" fill="#FF0066"/>
<path d="M16.437 16.1107C16.675 16.346 16.9744 16.4736 17.285 16.471C17.5853 16.4666 17.8623 16.3396 18.0802 16.1095C17.863 15.9184 17.5675 15.808 17.2594 15.808C16.95 15.808 16.6542 15.9188 16.437 16.1107ZM17.2691 16.9316C16.7403 16.9316 16.2404 16.6797 15.8944 16.2378L15.7891 16.1032L15.8968 15.9702C16.2125 15.5803 16.7219 15.3475 17.2594 15.3475C17.7925 15.3475 18.2994 15.5773 18.6154 15.9622L18.7211 16.091L18.6235 16.2249C18.3013 16.6663 17.8165 16.9238 17.2934 16.9314C17.2853 16.9316 17.2771 16.9316 17.2691 16.9316Z" fill="#000072"/>
<path fill-rule="evenodd" clip-rule="evenodd" d="M26.9504 8.49219C25.3015 6.0487 23.3246 4.39437 21.0195 3.52946C25.5411 -2.15237 27.5181 -0.498129 26.9504 8.49219Z" fill="#FF850B"/>
<path d="M21.4151 3.43356C23.4387 4.26182 25.225 5.71366 26.7363 7.75765C27.0121 2.21805 26.1742 0.7438 25.4035 0.500708C24.8152 0.315323 23.649 0.683978 21.4151 3.43356ZM27.1612 9.24805L26.7321 8.61214C25.1196 6.22258 23.1647 4.58423 20.9218 3.74261L20.625 3.63126L20.8119 3.39644C22.8802 0.797431 24.4374 -0.292272 25.5738 0.0663109C27.0234 0.52357 27.5427 3.20532 27.2081 8.50596L27.1612 9.24805Z" fill="#000072"/>
<path fill-rule="evenodd" clip-rule="evenodd" d="M20.6291 8.78956C21.0094 8.64973 21.3928 8.70041 21.4853 8.90279C21.5778 9.10517 21.3445 9.38267 20.9643 9.52259C20.584 9.66241 20.2007 9.61165 20.1081 9.40927C20.0156 9.20689 20.2489 8.92939 20.6291 8.78956Z" fill="white"/>
<path fill-rule="evenodd" clip-rule="evenodd" d="M14.0014 8.77595C13.6212 8.63604 13.2378 8.68681 13.1453 8.88918C13.0527 9.09157 13.286 9.36907 13.6662 9.50888C14.0464 9.64871 14.4298 9.59803 14.5223 9.39566C14.6149 9.19328 14.3816 8.91577 14.0014 8.77595Z" fill="white"/>
<path fill-rule="evenodd" clip-rule="evenodd" d="M12.693 11.2869C12.5065 11.2869 12.3555 11.4312 12.3555 11.6092C12.3555 11.7873 12.5065 11.9316 12.693 11.9316C12.8793 11.9316 13.0304 11.7873 13.0304 11.6092C13.0304 11.4312 12.8793 11.2869 12.693 11.2869Z" fill="white"/>
<path fill-rule="evenodd" clip-rule="evenodd" d="M7.68484 8.60938C9.33362 6.1658 11.3105 4.51156 13.6156 3.64656C9.09404 -2.03527 7.11711 -0.380939 7.68484 8.60938Z" fill="#FF850B"/>
<path d="M9.50705 0.57746C9.40385 0.57746 9.31279 0.592441 9.23248 0.617789C8.46176 0.860893 7.6239 2.3351 7.89965 7.87471C9.41083 5.83079 11.1971 4.37894 13.2208 3.55059C11.2919 1.17652 10.159 0.57746 9.50705 0.57746ZM7.47479 9.36523L7.4279 8.62307C7.09319 3.3224 7.61246 0.640664 9.06209 0.183367C10.1978 -0.17478 11.7555 0.914295 13.824 3.51348L14.0109 3.74829L13.7141 3.85964C11.4711 4.70136 9.51619 6.33974 7.9039 8.72927L7.47479 9.36523Z" fill="#000072"/>
<g opacity="0.649994">
<g opacity="0.649994">
<path opacity="0.649994" fill-rule="evenodd" clip-rule="evenodd" d="M13.0444 3.87695C13.2309 3.79423 13.4199 3.71705 13.611 3.64522C10.8086 0.123739 8.98424 -0.578419 8.13672 1.53591C9.03927 0.0491412 10.675 0.829382 13.0441 3.87677L13.0444 3.87695Z" fill="white"/>
</g>
</g>
<path fill-rule="evenodd" clip-rule="evenodd" d="M8.91873 6.95312C9.72248 6.06164 10.6334 5.28996 11.6516 4.63831C9.36916 0.65248 8.45815 1.42406 8.91873 6.95312Z" fill="#000072"/>
<path d="M9.50734 2.36322C9.49611 2.36322 9.48843 2.36457 9.48396 2.3657C9.45647 2.37264 9.21254 2.46278 9.10815 3.47792C9.03782 4.16189 9.04613 5.13311 9.13257 6.37011C9.79621 5.69678 10.5304 5.09253 11.3232 4.56747C10.1223 2.50896 9.62407 2.36322 9.50734 2.36322ZM8.71218 7.54883L8.66396 6.96935C8.31349 2.76207 8.81141 2.05714 9.34476 1.92244C9.98258 1.76097 10.7414 2.54178 11.8812 4.5322L11.9826 4.70923L11.8019 4.82481C10.8078 5.46106 9.90532 6.22553 9.1196 7.09698L8.71218 7.54883Z" fill="#000072"/>
<g opacity="0.300003">
<g opacity="0.300003">
<path opacity="0.300003" fill-rule="evenodd" clip-rule="evenodd" d="M9.21348 2.26662C8.38058 2.82521 7.84259 4.33649 7.59961 6.80033C7.61424 7.36613 7.64181 7.96906 7.6822 8.60938C7.80538 8.4096 7.93562 8.21213 8.07323 8.01779L8.06359 8.06624C8.72892 7.15617 9.44462 6.3672 10.2104 5.69922C9.76261 6.078 9.34063 6.48579 8.94444 6.92248C8.93667 6.93104 8.92891 6.93953 8.92115 6.94827C8.92045 6.94897 8.91976 6.94978 8.91896 6.95077C8.91826 6.95148 8.91768 6.9522 8.91696 6.95291C8.6938 4.27395 8.7927 2.71188 9.21348 2.26662ZM25.4183 2.15018C26.2513 2.70884 26.7893 4.22005 27.0322 6.68388C27.0176 7.24968 26.99 7.8527 26.9497 8.49294C26.8264 8.29315 26.6962 8.09577 26.5586 7.90133L26.5682 7.94979C25.903 7.03973 25.1873 6.25075 24.4214 5.58287C24.8693 5.96165 25.2912 6.36943 25.6874 6.80612C25.6951 6.8146 25.7029 6.82317 25.7107 6.83183C25.7114 6.83262 25.7121 6.83343 25.7128 6.83431C25.7136 6.83512 25.7141 6.83575 25.7148 6.83656C25.9381 4.15759 25.8391 2.59543 25.4183 2.15018Z" fill="#000072"/>
</g>
</g>
<g opacity="0.649994">
<g opacity="0.649994">
<path opacity="0.649994" fill-rule="evenodd" clip-rule="evenodd" d="M21.5842 3.76172C21.3977 3.679 21.2087 3.60181 21.0176 3.53007C23.8199 0.00858831 25.6444 -0.69366 26.492 1.42067C25.5894 -0.0660987 23.9536 0.71422 21.5845 3.76163L21.5842 3.76172Z" fill="white"/>
</g>
</g>
<path fill-rule="evenodd" clip-rule="evenodd" d="M25.7192 6.83594C24.9154 5.94435 24.0045 5.17268 22.9863 4.52102C25.2687 0.535201 26.1798 1.30686 25.7192 6.83594Z" fill="#000072"/>
<path d="M23.3117 4.45208C24.1046 4.97724 24.8389 5.58155 25.5023 6.25479C25.5888 5.01776 25.5971 4.04657 25.5267 3.36257C25.4223 2.34743 25.1785 2.25726 25.151 2.25034C25.1003 2.23773 24.6284 2.19522 23.3117 4.45208ZM25.9226 7.43359L25.5153 6.98168C24.7298 6.11033 23.8274 5.34583 22.833 4.70943L22.6523 4.59385L22.7537 4.41683C23.8934 2.42655 24.6516 1.64578 25.2902 1.8071C25.8235 1.94179 26.3215 2.64673 25.9709 6.85406L25.9226 7.43359Z" fill="#000072"/>
<path d="M9.50715 0.577483C9.40395 0.577483 9.31289 0.592463 9.23258 0.617812C8.46186 0.860917 7.62393 2.33517 7.89968 7.87477C9.41094 5.83081 11.1972 4.37894 13.2209 3.55061C11.2921 1.17654 10.1591 0.577483 9.50715 0.577483ZM7.47475 9.36523L7.42786 8.62309C7.09322 3.32243 7.61256 0.640649 9.06219 0.18339C10.1979 -0.174757 11.7556 0.914318 13.8241 3.5135L14.011 3.74831L13.7142 3.85966C11.4712 4.70138 9.5163 6.33977 7.90387 8.72929L7.47475 9.36523Z" fill="#000072"/>
<path d="M17.4561 3.13634C11.3978 3.13634 6.51939 8.62652 6.51939 13.1722C6.51939 14.3542 7.11841 15.4657 8.29991 16.476C10.9316 18.7263 15.7331 19.8247 17.3207 19.8248C17.3643 19.8248 17.4052 19.824 17.4439 19.8223C18.5941 19.7732 21.2439 19.2423 23.5338 18.2162C25.5473 17.3139 27.9474 15.7305 27.9474 13.311C27.9474 8.60579 23.3646 3.13634 17.4561 3.13634ZM17.3272 20.2852C15.6242 20.2852 10.7161 19.1782 7.94559 16.8093C6.65853 15.7087 6.00586 14.485 6.00586 13.1722C6.00586 10.8022 7.27205 8.16108 9.39293 6.10715C11.6446 3.92653 14.5835 2.67586 17.4561 2.67586C20.3466 2.67586 23.1332 3.92134 25.3028 6.18289C27.2803 8.24421 28.461 10.9089 28.461 13.311C28.461 15.4124 26.8365 17.251 23.7633 18.6281C21.4067 19.6842 18.6635 20.2312 17.4683 20.2823C17.4242 20.2842 17.377 20.2852 17.3272 20.2852Z" fill="#000072"/>
<g opacity="0.559998">
<g opacity="0.559998">
<path opacity="0.559998" fill-rule="evenodd" clip-rule="evenodd" d="M17.7226 12.2202C17.9471 12.2733 18.1131 12.37 18.0936 12.4364C18.0742 12.5027 17.8765 12.5135 17.652 12.4604C17.4275 12.4074 17.2613 12.3106 17.2809 12.2442C17.3004 12.1779 17.4982 12.1671 17.7226 12.2202Z" fill="white"/>
</g>
</g>
<path d="M11.7754 9.70925C12.1901 10.2031 12.5977 10.5851 12.9983 10.855C13.5877 11.252 14.2255 11.3216 14.2962 10.8842C13.9792 10.8517 13.6488 10.7195 13.3052 10.4881C12.4584 9.91734 12.1936 9.54989 11.7754 9.70925Z" fill="#000072"/>
<path d="M21.4151 3.43356C23.4387 4.26182 25.225 5.71366 26.7363 7.75765C27.0121 2.21805 26.1742 0.7438 25.4035 0.500708C24.8152 0.315323 23.649 0.683978 21.4151 3.43356ZM27.1612 9.24805L26.7321 8.61214C25.1196 6.22258 23.1647 4.58423 20.9218 3.74261L20.625 3.63126L20.8119 3.39644C22.8802 0.797431 24.4374 -0.292272 25.5738 0.0663109C27.0234 0.52357 27.5427 3.20532 27.2081 8.50596L27.1612 9.24805Z" fill="#000072"/>
</svg>
